<svg xmlns="http://www.w3.org/2000/svg" viewBox="0 0 108.45 144.63"><title>Recurso 1</title><g id="Capa_2" data-name="Capa 2"><g id="Capa_1-2" data-name="Capa 1"><path d="M0,72.05V10.49C0,3.54,3.48,0,10.38,0,29,0,47.65.06,66.28,0A7.49,7.49,0,0,1,72,2.36c11.34,11.42,22.79,22.73,34.05,34.23A8.63,8.63,0,0,1,108.35,42c.14,30.87.11,61.74.09,92.61,0,6.35-3.64,10-10,10H10.1C3.6,144.62,0,141,0,134.45Q0,103.25,0,72.05ZM99.26,45.23c-7.54,0-15-.31-22.35.07C66.52,45.83,62.64,42,63.18,31.55c.38-7.38.08-14.8.08-22.29h-54v126.1h90Zm-7.32-9.18C85.41,29.53,78.88,23,72.49,16.6V36.05Z"/><path d="M40.67,27.24c2.51,1.28,4.78,2.22,6.82,3.52,2.53,1.61,3.13,4.39,1.71,6.56S45,40,42.52,38.25a10.72,10.72,0,0,0-11.22-.92c-2.32,1.1-4.1,2.81-4.13,5.58s1.7,4.61,4,5.59a19.15,19.15,0,0,0,5.72,1.21c4.86.38,9.19,1.9,12.7,5.35,6.41,6.29,6.14,15.89-.81,21.59-2.27,1.87-5.1,3.07-8.16,4.86,0,1,.07,2.72,0,4.38a4.5,4.5,0,0,1-9,0c-.1-1.58,0-3.18,0-4.65-2.39-1.21-4.72-2.19-6.83-3.53-2.54-1.61-3.13-4.37-1.7-6.55s4.13-2.64,6.68-.93A10.68,10.68,0,0,0,41,71.17c2.33-1.09,4.1-2.8,4.13-5.57S43.43,61,41.08,60a16.79,16.79,0,0,0-5.43-1.2A20.22,20.22,0,0,1,23.7,54.4C16,48,16.23,37.06,24.34,31.14c2.09-1.53,4.58-2.51,7.3-4,0-1.23-.08-2.9,0-4.55a4.5,4.5,0,0,1,9-.05C40.74,24.17,40.67,25.77,40.67,27.24Z"/><path d="M54.21,99.43q15.23,0,30.45,0c3.59,0,5.64,1.63,5.7,4.43s-2,4.6-5.53,4.6q-30.6,0-61.19,0c-2.24,0-4.39-.44-5-2.73a5.77,5.77,0,0,1,.67-4.6,6.5,6.5,0,0,1,4.45-1.67C33.9,99.36,44.06,99.43,54.21,99.43Z"/><path d="M54.21,117.5H84.66c3.59,0,5.64,1.63,5.7,4.43s-2,4.6-5.53,4.61q-30.6,0-61.19,0c-2.24,0-4.39-.43-5-2.73a5.74,5.74,0,0,1,.67-4.59,6.45,6.45,0,0,1,4.45-1.67C33.9,117.44,44.06,117.5,54.21,117.5Z"/><path d="M76.91,72.33c-2.91,0-5.82,0-8.73,0s-5-2-4.91-4.62,2-4.36,4.86-4.39c5.82-.06,11.63-.07,17.45,0a4.51,4.51,0,1,1,0,9C82.73,72.39,79.82,72.33,76.91,72.33Z"/><path d="M76.53,90.41c-2.72,0-5.44,0-8.16,0-3.1-.06-5.05-1.79-5.1-4.45s1.92-4.54,5-4.57q8.58-.09,17.17,0c3,0,5,1.93,5,4.57s-2,4.4-5.1,4.45C82.35,90.44,79.44,90.41,76.53,90.41Z"/></g></g></svg>