<svg xmlns="http://www.w3.org/2000/svg" viewBox="0 0 149.11 149.17"><title>Recurso 2</title><g id="Capa_2" data-name="Capa 2"><g id="Capa_1-2" data-name="Capa 1"><path d="M100.78,141.76c-2,2.12-3.33,3.76-4.84,5.26-2.86,2.84-4.89,2.85-7.72.07-1.58-1.55-3.06-3.19-4.94-5.16-1.61,1.73-2.88,3.17-4.23,4.53-3.61,3.62-5.24,3.61-9,0L65.35,142c-1.62,1.76-3.07,3.46-4.65,5-2.85,2.86-4.89,2.88-7.7.08-1.57-1.58-3-3.28-5-5.49-1.93,2.18-3.43,4.07-5.13,5.76-2.46,2.44-4.53,2.37-7.08,0a2,2,0,0,0-.21-.2c-7.54-5.43-9.84-12.52-9.58-22,.72-25.89.25-51.81.25-77.72V44a82.84,82.84,0,0,1-8.83-.82A21.77,21.77,0,0,1,21.49.06q53-.1,106,0a21.91,21.91,0,0,1,21.66,21.79A22.08,22.08,0,0,1,127.47,43.7c-1.45,0-2.89,0-4.84,0v3.78c0,28.63,0,57.26.05,85.88,0,3.16-.79,5.59-3.21,7.68-2.27,2-4.24,4.26-6.42,6.33-2.5,2.38-4.62,2.37-7.1,0C104.29,145.72,102.79,144,100.78,141.76ZM35,26.34V30c0,33.09.09,66.18-.1,99.27,0,4.07,1.16,6.85,4.47,8.94a1.31,1.31,0,0,0,.44-.2c1.53-1.49,3-3,4.57-4.48,2.73-2.64,4.78-2.65,7.5.07,1.62,1.61,3.12,3.35,5,5.36,2-2.17,3.51-4,5.17-5.57,2.48-2.45,4.51-2.43,7.08-.06,1.82,1.68,3.6,3.4,5.7,5.39,1.81-2,3.32-3.74,5-5.36,2.49-2.42,4.65-2.46,7.08,0,1.68,1.7,3.06,3.69,4.94,6,2.22-2.48,3.58-4.13,5.08-5.64,2.94-2.94,4.91-2.88,7.94.07l4.55,4.43c3.64-2.2,4.63-5,4.61-8.95-.16-33.09-.09-66.18-.09-99.27V26.34Zm-8.88-.12a42.32,42.32,0,0,1-4.53,0,4.19,4.19,0,0,1-4-4.2,4.31,4.31,0,0,1,4.08-4.46,22.6,22.6,0,0,1,2.33,0h101c.68,0,1.36,0,2,0a4.36,4.36,0,0,1,0,8.71c-1.33.09-2.67,0-4.11,0v8.68c2,0,3.69.13,5.41,0a13.54,13.54,0,0,0,12-11.6,13,13,0,0,0-8.74-13.61,19.69,19.69,0,0,0-6.27-.87q-50.78-.08-101.56,0c-.87,0-1.75,0-2.62,0-5.52.54-9.49,3.32-11.45,8.52s-.78,10,3.13,13.89c3.67,3.71,8.3,4.13,13.31,3.58Z"/><path d="M47.53,99.54c1.47.83,2.65,1.4,3.72,2.13s2.19,2.27,3.45,2.51a7.39,7.39,0,0,0,5-.72,4.27,4.27,0,0,0,1.15-4C60.16,98,58.41,97,56.92,96.2c-.94-.52-2.28-.27-3.39-.58-5.52-1.52-8.71-5.25-9.69-10.8a12.5,12.5,0,0,1,6.35-13c1.89-1,2.49-2.13,2.27-4.06a11.25,11.25,0,0,1,0-2.32,4.35,4.35,0,0,1,8.7-.06,4.51,4.51,0,0,1,0,1.16c-.44,2.81.35,4.78,3.3,5.75a8.62,8.62,0,0,1,3,2.28,4.37,4.37,0,0,1,.42,6,4.3,4.3,0,0,1-6,.61c-.72-.5-1.35-1.12-2.09-1.58-1.88-1.17-4-1.62-5.59.1a6.09,6.09,0,0,0-1.47,4.33c.28,2.25,2.16,3.22,4.46,3.35,5.81.34,9.88,3.28,11.94,8.68,2.32,6-.24,12.61-6.13,15.87-1.4.78-2,1.6-1.82,3.15a13.62,13.62,0,0,1,0,3.19,4.14,4.14,0,0,1-4.24,4c-2.47,0-4.52-1.48-4.28-3.79.44-4.22-1.25-6.53-4.84-8.25a7.64,7.64,0,0,1-3.41-3.45,6.46,6.46,0,0,1-.17-4.58C44.62,101.11,46.26,100.49,47.53,99.54Z"/><path d="M74.12,52.45q-12.36,0-24.73,0c-3.6,0-5.67-1.63-5.67-4.37s2.08-4.36,5.68-4.37H99.45c3.64,0,5.66,1.6,5.66,4.38s-2,4.36-5.67,4.36Q86.78,52.47,74.12,52.45Z"/><path d="M92.33,69.91c2.72,0,5.43-.06,8.14,0s4.55,1.77,4.63,4.2-1.76,4.46-4.63,4.49q-8.43.12-16.85,0c-2.87,0-4.71-1.93-4.63-4.49s1.87-4.13,4.63-4.2S89.43,69.91,92.33,69.91Z"/><path d="M91.87,96.12c-2.71,0-5.43,0-8.14,0C80.82,96,79,94.26,79,91.72s1.89-4.3,4.81-4.33c5.52,0,11-.06,16.57,0,2.9,0,4.76,1.84,4.75,4.38s-1.9,4.27-4.81,4.33S94.68,96.12,91.87,96.12Z"/><path d="M91.93,113.59c-2.72,0-5.43,0-8.14,0-2.92-.06-4.79-1.8-4.81-4.33s1.84-4.34,4.76-4.38c5.52-.06,11,0,16.56,0,2.92,0,4.79,1.8,4.81,4.33s-1.85,4.31-4.76,4.38S94.73,113.59,91.93,113.59Z"/></g></g></svg>