<svg xmlns="http://www.w3.org/2000/svg" viewBox="0 0 149.2 149.22"><title>Recurso 3</title><g id="Capa_2" data-name="Capa 2"><g id="Capa_1-2" data-name="Capa 1"><path d="M0,71.73Q0,52.07,0,32.41c0-8.94,5.37-14.3,14.31-14.32,4.27,0,8.55-.12,12.81.05,2,.08,2.41-.63,2.34-2.44-.13-3.49-.08-7,0-10.49S31.06,0,34.6,0c18.84,0,37.68,0,56.52,0A6.44,6.44,0,0,1,96,2.1c4.78,4.83,9.64,9.59,14.39,14.45a4.81,4.81,0,0,0,3.8,1.58c7.09-.08,14.18-.07,21.27,0,8.16,0,13.71,5.56,13.72,13.72q0,40.2,0,80.39c0,8.13-5.6,13.65-13.78,13.67q-19.08.06-38.16,0c-1.81,0-2.65.12-1.94,2.33a100.19,100.19,0,0,1,2.54,10.14c.33,1.6.92,2.37,2.67,2.16a13.23,13.23,0,0,1,3.77,0A4.09,4.09,0,0,1,108,145a4.14,4.14,0,0,1-3.72,4.18,10.66,10.66,0,0,1-2,.06H46.92c-1.46,0-2.92.05-4.14-1a4.15,4.15,0,0,1-1.42-4.7,4.33,4.33,0,0,1,3.83-3.07c1.91-.33,4.36,1.07,5.65-.81,1-1.5,1.09-3.67,1.56-5.55s.79-4,1.48-5.91c.8-2.17-.1-2.34-1.92-2.33-12.53.06-25.06,0-37.58,0-9,0-14.36-5.36-14.37-14.26Q0,91.68,0,71.73ZM38.17,54.2q0,21.54,0,43.1c0,1.52,0,2.43,2.09,2.42q34.37-.12,68.73,0c1.66,0,2.11-.47,2.1-2.11q-.07-31.74,0-63.48c0-1.69-.52-2.11-2.14-2.08-5.24.09-10.48.05-15.72,0-3.91,0-5.44-1.52-5.47-5.45,0-5.05-.1-10.1,0-15.14.06-2.06-.31-2.8-2.64-2.78q-22.14.2-44.27,0c-2.14,0-2.76.45-2.74,2.68C38.22,25.66,38.17,39.93,38.17,54.2Zm-8.73,9.23c0-11.45,0-22.89,0-34.33,0-1.71-.32-2.38-2.21-2.32-4.55.15-9.11,0-13.67.06-3.18.05-4.84,1.68-4.84,4.88,0,22,0,44,0,66,0,1.51.37,2,1.92,1.95,5.43-.1,10.86-.13,16.29,0,2,.06,2.59-.5,2.57-2.54C29.39,85.93,29.44,74.68,29.44,63.43Zm90.31-.5c0,11.45,0,22.9,0,34.34,0,1.82.36,2.51,2.37,2.46,5.43-.16,10.86-.12,16.3,0,1.59,0,2.11-.35,2.11-2-.06-21.92,0-43.84-.05-65.76,0-3.49-1.66-5-5.26-5.06-4.36,0-8.73.09-13.09-.06-1.92-.06-2.4.49-2.39,2.4C119.8,40.43,119.75,51.68,119.75,62.93Zm-45,45.48H56.68c-15.15,0-30.3,0-45.45,0-.83,0-2.15-.89-2.51,1-1,5.06,1.11,7.73,6.15,7.73H134.32a17.33,17.33,0,0,0,2,0c3.12-.36,4.4-2.56,4.08-7.11-.22-3.1-2.66-1.51-3.93-1.52C115.92,108.38,95.33,108.41,74.74,108.41Zm-14.89,32H89.34c-1.09-4.46-2.17-8.76-3.18-13.09-.29-1.22-1-1.41-2.1-1.4-6.31,0-12.62,0-18.93,0-.9,0-1.73,0-2,1.12C62.07,131.41,61,135.81,59.85,140.36Zm43.2-117.08-6.59-6.49C96.35,23.7,96.35,23.7,103.05,23.28Z"/><path d="M62.91,31.77c0,1.87.07,3.21,0,4.54-.21,3.61-.29,6.58,4.29,8.26,4,1.47,5.47,5.62,5,10A11.79,11.79,0,0,1,65,64.69c-1.48.66-2.3,1.26-2.18,3.06a2.62,2.62,0,0,1-2.85,3,2.57,2.57,0,0,1-2.85-2.94c.12-1.71-.69-2.14-2.09-2.35A13.22,13.22,0,0,1,49.52,63a2.75,2.75,0,0,1-.88-4.05c.89-1.43,2.3-1.57,3.85-.89,4.59,2,4.6,2,4.6-3.07a19.83,19.83,0,0,1,0-2c.42-4-.26-6.9-4.4-9.34-6-3.52-4.43-13.31,2.23-16.47,1.47-.7,2.33-1.26,2.24-3.08S58.31,21.4,60,21.4a2.56,2.56,0,0,1,2.83,2.68c0,1.63.69,2.11,2.08,2.45a8.35,8.35,0,0,1,3.75,2.15c1.28,1.24,1.74,2.67.55,4.13s-2.63,1.48-4.13.44Zm.14,27.51c2.7-1.91,3.77-4.06,3.3-6.78A4.08,4.08,0,0,0,63.05,49ZM57,32.61c-2.87,3.21-2.78,5.18,0,6.77Z"/><path d="M74.45,88H52.32C49,88,47,86.34,47,83.64s2-4.35,5.38-4.36q22.26,0,44.54,0c3.37,0,5.37,1.67,5.37,4.36s-2,4.36-5.37,4.37Z"/><path d="M90.57,53.05c-2.33,0-4.65.06-7,0-2.72-.09-4.52-1.82-4.58-4.25s1.81-4.4,4.68-4.44q7-.11,14,0a4.31,4.31,0,0,1,4.58,4.25c.06,2.55-1.8,4.36-4.68,4.44C95.23,53.1,92.9,53.05,90.57,53.05Z"/><path d="M90.58,70.53c-2.32,0-4.65.06-7,0-2.72-.09-4.52-1.81-4.58-4.24s1.79-4.41,4.66-4.45q7-.1,14,0a4.31,4.31,0,0,1,4.59,4.24c.06,2.55-1.79,4.37-4.67,4.45C95.24,70.58,92.91,70.53,90.58,70.53Z"/></g></g></svg>