<svg xmlns="http://www.w3.org/2000/svg" viewBox="0 0 152.46 152.46"><title>Recurso 4</title><g id="Capa_2" data-name="Capa 2"><g id="Capa_1-2" data-name="Capa 1"><path d="M66,152.45q-25.29,0-50.58,0c-10,0-15.32-5.3-15.33-15.15Q0,89.85,0,42.39a8.18,8.18,0,0,1,2.57-6.32Q19.31,19.38,35.9,2.5a7.76,7.76,0,0,1,6-2.5c19.74.07,39.48,0,59.22,0,9.8,0,15.29,5.46,15.3,15.26q0,31.25,0,62.48c0,2.2.44,3,2.87,3.19,17.81,1.06,32.44,16,33.15,33.67C153.17,133,140,149.28,122.16,152a51,51,0,0,1-7.4.5Zm26.86-8.92c-5.11-4.75-8.59-9.78-10.45-15.75-.64-2-1.53-2.48-3.51-2.47-18,.08-35.91,0-53.87,0a22.11,22.11,0,0,1-3.26-.14,4.35,4.35,0,0,1-.1-8.6,19.73,19.73,0,0,1,3.26-.16h50c5.16,0,5.16,0,6-4.88a5.61,5.61,0,0,1,.2-1.17c1-2.68-.27-3-2.63-2.94-17.85.09-35.71,0-53.56,0-4.79,0-7-1.45-6.91-4.55s2.17-4.36,6.8-4.36h58c1.38,0,2.56,0,3.53-1.47a34.59,34.59,0,0,1,19.48-14.73,2.15,2.15,0,0,0,1.77-2.52c0-21.82,0-43.65,0-65.47,0-3.69-1.8-5.41-5.53-5.42C83.63,9,65.27,9,46.92,8.92c-1.87,0-2.28.5-2.26,2.3.09,9.23.05,18.45,0,27.68,0,4.63-1.39,6.06-6,6.07-8.93,0-17.86.12-26.78-.06-2.57,0-3,.75-3,3.14Q9,92.68,9,137.32c0,4.82,1.37,6.2,6.15,6.2H92.81Zm23.6-53.87a27,27,0,0,0-27,27c.08,14.62,12.61,27,27.28,26.9s27-12.62,26.9-27.29A27,27,0,0,0,116.41,89.66ZM35.77,17.06l-19.52,19c5.81,0,11.82,0,17.83,0,1.57,0,1.72-.7,1.71-2C35.75,28.11,35.77,22.09,35.77,17.06Z"/><path d="M58.4,62.86q16.67,0,33.32,0a13.51,13.51,0,0,1,3.25.24,4.34,4.34,0,0,1,0,8.42,14.57,14.57,0,0,1-3.24.24q-33.63,0-67.24,0a16.94,16.94,0,0,1-2.67-.11A4.12,4.12,0,0,1,18,67.17,4,4,0,0,1,21.82,63c2.46-.22,4.95-.14,7.43-.14Z"/><path d="M49.76,89.64q-12.65,0-25.3,0a14,14,0,0,1-3.24-.25A4,4,0,0,1,18,85.3,4.07,4.07,0,0,1,21.26,81a12,12,0,0,1,2.95-.23q25.74,0,51.49,0a13.82,13.82,0,0,1,3,.21,4.34,4.34,0,0,1,0,8.49,14.59,14.59,0,0,1-3,.2Z"/><path d="M76,36.05c-5.65,0-11.3,0-17,0-3.47,0-5.47-1.78-5.4-4.54s2-4.33,5.31-4.34q16.95-.07,33.9,0c3.47,0,5.47,1.78,5.4,4.55S96.27,36,93,36C87.31,36.09,81.66,36.05,76,36.05Z"/><path d="M76.27,45c5.45,0,10.9,0,16.36,0,3.58,0,5.55,1.58,5.64,4.31s-2,4.57-5.66,4.58q-16.65,0-33.31,0c-3.58,0-5.55-1.57-5.64-4.3s2-4.57,5.66-4.59C65,45,70.62,45,76.27,45Z"/><path d="M134.59,111.59a5,5,0,0,1-1.7,3.94c-5.79,5.71-11.57,11.43-17.4,17.09-2.31,2.24-4.68,2.19-7.06-.05-2.82-2.64-5.61-5.32-8.34-8.06-2.26-2.27-2.36-4.91-.4-6.81s4.38-1.62,6.63.44a53.85,53.85,0,0,1,4.26,4.15c1.09,1.24,1.76,1,2.82-.06,4.39-4.44,8.89-8.78,13.34-13.16a4.51,4.51,0,0,1,5.18-1.14A4.17,4.17,0,0,1,134.59,111.59Z"/></g></g></svg>