<svg xmlns="http://www.w3.org/2000/svg" viewBox="0 0 147.9 146.49"><title>Recurso 5</title><g id="Capa_2" data-name="Capa 2"><g id="Capa_1-2" data-name="Capa 1"><path d="M83,125.94c-3.55-.35-6.93.81-10.35,1.35-8.16,1.29-16.29,2.81-24.44,4.21-2.92.5-4.42-.59-5-3.74Q38.3,99.5,33.46,71.22q-2.92-17-5.81-34.1c-.22-1.26-.53-1.87-2-1.35-6.51,2.31-13,4.63-19.6,6.73-2.16.69-1.11,1.83-.75,2.82q7,19.51,14,39a17.47,17.47,0,0,1,.76,2.17A2,2,0,0,1,18.75,89a1.93,1.93,0,0,1-2.64-1c-.64-1.39-1.13-2.86-1.65-4.3Q7.64,64.71.83,45.76c-1.62-4.5-1.09-5.6,3.55-7.21,6.71-2.32,13.42-4.65,20.14-6.91,1.49-.49,2.05-1,1.7-2.81-1.71-9-1.6-9,7.42-10.38,5.79-.91,11.55-2,17.35-2.89,1.63-.25,2-1,2-2.48-.1-2.69,0-5.39,0-8.09C53,1.23,54.16.05,58,0Q78.79,0,99.59,0c8.37,0,16.75,0,25.12,0a6.76,6.76,0,0,1,5.17,2q8,7.77,16.08,15.36a5.69,5.69,0,0,1,1.94,4.54q-.08,45.77,0,91.54c0,4.15-1.07,5.21-5.36,5.22-5.77,0-11.55-.09-17.32,0a45,45,0,0,0-14.13,2.49Q76.76,133.41,42.5,145.73c-4.19,1.5-5.32,1-6.86-3.3q-7.92-21.92-15.81-43.85c-.16-.46-.28-.92-.46-1.37a2,2,0,0,1,1.15-2.86c1.46-.65,2.42.19,2.95,1.47.69,1.68,1.25,3.42,1.86,5.14q7,19.37,13.91,38.73c.45,1.25.56,2.5,2.59,1.76,13.43-4.91,26.9-9.71,40.35-14.56C82.5,126.77,83,126.7,83,125.94Zm-24.51-7.31c-4.56,0-5.49-.91-5.49-5.34q0-19.79,0-39.57c0-.57,0-1.15,0-1.73a2,2,0,0,1,2-2,2,2,0,0,1,2.19,2.17c0,.77,0,1.54,0,2.31,0,12.51,0,25-.05,37.54,0,1.88.47,2.39,2.37,2.38q40.88-.09,81.74,0c1.67,0,2.3-.28,2.29-2.16q-.09-43.6,0-87.21c0-1.65-.49-2.13-2.1-2.08-3.85.11-7.7.08-11.55,0-4.89-.07-6.62-1.82-6.67-6.62,0-3.08-.19-6.18,0-9.24.15-2.24-.63-2.65-2.72-2.64q-30.33.12-60.65,0c-2.48,0-2.72.89-2.71,3,.07,17.52,0,35,0,52.55a14.86,14.86,0,0,1-.09,2.59A1.9,1.9,0,0,1,55,64.13a1.83,1.83,0,0,1-2-1.68,20.25,20.25,0,0,1-.1-2.59c0-12.51,0-25,0-37.54,0-1.91.06-2.93-2.55-2.36-5.82,1.27-11.71,2.26-17.62,3-2.82.35-3.06,1.46-2.62,3.88,2.15,11.92,4.15,23.86,6.2,35.79q5.31,31,10.56,62c.38,2.3,1.14,2.55,3.34,2.16l45.55-8.2S69.9,118.65,58.44,118.63ZM127.62,5.9c0,4.15,0,7.66,0,11.17,0,.94.33,1.42,1.32,1.42,3.76,0,7.52,0,11.88,0Z"/><path d="M101.07,93.06h29.46c1.63,0,3.34.13,3.37,2.19s-1.63,2.29-3.29,2.29c-7.71,0-15.41,0-23.11,0H72.55c-.48,0-1,0-1.44,0-1.66.06-3.35-.17-3.39-2.2s1.64-2.28,3.31-2.27h30Z"/><path d="M100.77,46.89H131.1c1.49,0,2.8.49,2.82,2.19s-1.18,2.28-2.73,2.26H70.25c-1.46,0-2.5-.7-2.55-2.17s1-2.17,2.46-2.26c.67,0,1.35,0,2,0Z"/><path d="M100.78,62.33h29.16a10.9,10.9,0,0,1,2.29.09,2,2,0,0,1,1.72,2,1.92,1.92,0,0,1-1.64,2.07,13.87,13.87,0,0,1-2.58.17H71.41c-1.67,0-3.65.09-3.68-2.17s1.89-2.22,3.6-2.22Q86,62.35,100.78,62.33Z"/><path d="M100.76,35.85H71.64a11.75,11.75,0,0,1-2.3-.1,1.94,1.94,0,0,1-1.63-2.07,2,2,0,0,1,1.74-2,9.85,9.85,0,0,1,1.44-.06h60c1.59,0,3.08.26,3,2.17s-1.59,2.08-3.15,2.08Q115.76,35.83,100.76,35.85Z"/><path d="M100.82,82H71.7A13.51,13.51,0,0,1,69.4,82a2,2,0,0,1-1.69-2,1.93,1.93,0,0,1,1.69-2,14.65,14.65,0,0,1,2.3-.11h58.24c.58,0,1.15,0,1.73,0,1.35.06,2.25.76,2.24,2.11a2,2,0,0,1-2.24,2.1c-1.64,0-3.27,0-4.9,0Z"/></g></g></svg>