<svg xmlns="http://www.w3.org/2000/svg" viewBox="0 0 137.1 156.89"><title>Recurso 6</title><g id="Capa_2" data-name="Capa 2"><g id="Capa_1-2" data-name="Capa 1"><path d="M68.5,156.89H8.17c-5.94,0-8.16-2.2-8.17-8.09V56.93C0,48,3.71,42.72,12.12,40c1.48-.47,1.61-1.16,1.6-2.36q0-7.5,0-15c0-6.15,2.64-8.77,8.73-8.82,5,0,5,0,5-5.09,0-6,2.77-8.72,8.84-8.72Q68,0,99.72,0a6.46,6.46,0,0,1,5.12,2q8.22,8.46,16.66,16.69a5.79,5.79,0,0,1,1.91,4.58c-.1,4.69,0,9.39-.06,14.09,0,1.47.2,2.27,1.89,2.8,7.74,2.45,11.81,8.12,11.83,16.22,0,13.37,0,26.75,0,40.12,0,.51,0,1,0,1.53-.14,1.38-.82,2.35-2.27,2.41s-2.2-.94-2.37-2.29a20,20,0,0,1,0-2.45c0-11-.05-22,0-33.07,0-2-.21-2.82-2.55-2.82q-61.4.12-122.79,0c-1.84,0-2.4.4-2.4,2.34q.11,43.49,0,87c0,2.5,1,3.13,3.27,3.12q60.63-.06,121.26,0c2.37,0,3.22-.79,3.2-3.21-.09-12.56,0-25.11,0-37.67a14.8,14.8,0,0,1,.09-2.75,2.18,2.18,0,0,1,2.32-2,2.26,2.26,0,0,1,2.24,2.1,12.73,12.73,0,0,1,.06,2.14q0,19,0,38c0,5.71-2.28,8-8,8ZM61.81,55.21c13.47,0,27-.07,40.42.07,2.36,0,2.89-.65,2.79-2.88-.18-4.18-.12-8.37,0-12.56,0-1.75-.55-2.3-2.27-2.24-3.16.11-6.33.1-9.49,0-4.52-.13-7.39-3-7.5-7.56-.08-3.06-.16-6.13,0-9.18.13-2.08-.62-2.48-2.55-2.47-20.21.07-40.42,0-60.62.05-3.6,0-4.27.68-4.28,4.29,0,9.91.08,19.81-.06,29.71,0,2.29.54,2.84,2.83,2.82C34.66,55.15,48.23,55.21,61.81,55.21Zm4.9-50.58H37.93c-5.66,0-5.67.19-5.91,5.83-.12,2.89.81,3.5,3.55,3.48,16.73-.13,33.47,0,50.2-.11a7.11,7.11,0,0,1,5.63,2.36c5.39,5.57,10.9,11,16.43,16.46a5.43,5.43,0,0,1,1.79,4.3c-.1,5.51-.09,16.53-.09,16.53l9,.07s.17-18.56.24-27.85c0-1.54-.53-1.87-1.93-1.83-2.86.1-5.72,0-8.57,0-6,0-8.69-2.7-8.72-8.82,0-2.65-.15-5.32,0-8C99.78,5,99,4.58,97,4.59,86.91,4.68,76.81,4.63,66.71,4.63Zm-53,45.23c-.46-1.54,1.08-4.47-.7-5-2.15-.65-4.23,1.5-5.78,3.31a11.16,11.16,0,0,0-1.5,2.29c-2,4-1.48,4.76,2.9,4.76C13.74,55.22,13.74,55.22,13.74,49.86Zm109.61,0c0,5.36,0,5.41,4.15,5.34,1.57,0,3.95.8,4.56-.4.91-1.8-.46-3.87-1.59-5.57a10.32,10.32,0,0,0-1.76-2.08c-1.37-1.21-3.07-2.88-4.69-2.29S123.35,49.66,123.35,49.86ZM104.1,8.17V16c0,1.57.51,3,2.22,3.14a34.68,34.68,0,0,0,8.4,0Zm-3.48,24.92c-3.42-3.42-6.86-6.88-10.22-10.25,0,2.18,0,4.7,0,7.22a2.75,2.75,0,0,0,3,3C96,33.12,98.48,33.09,100.62,33.09Z"/><path d="M95.4,144c-7.65,0-15.31,0-23,0-4.41,0-6.24-1.73-6.25-6q0-18.08,0-36.14c0-4.31,1.84-6.08,6.22-6.11,5.31,0,10.62,0,15.93,0,1.84,0,4.08-.21,4,2.46,0,2.42-2.13,2.28-3.9,2.28-5,0-10,.07-15,0-1.89,0-2.62.32-2.6,2.44q.18,17,0,34c0,2.08.65,2.49,2.57,2.48q22-.12,44.11,0c2.22,0,2.65-.67,2.63-2.74q-.15-16.84,0-33.69c0-2-.56-2.56-2.54-2.51-5.2.14-10.41,0-15.62.06-1.66,0-3.29-.27-3.37-2.24-.1-2.2,1.6-2.52,3.39-2.52,5.72,0,11.43,0,17.15,0,3.77,0,5.65,1.94,5.66,5.72q.06,18.38,0,36.75c0,4-1.88,5.78-5.86,5.8C111.12,144,103.26,144,95.4,144Z"/><path d="M95.49,109.56h-15c-1.73,0-3.48-.19-3.41-2.47.06-2.06,1.66-2.26,3.31-2.25q15.13,0,30.28,0c1.67,0,3.22.23,3.27,2.3s-1.51,2.42-3.16,2.42Z"/><path d="M95.35,126.34c-5,0-10,0-14.95,0-1.61,0-3.25,0-3.31-2.18s1.52-2.33,3.17-2.33q15.26,0,30.52,0c1.67,0,3.21.22,3.15,2.34s-1.71,2.17-3.31,2.17C105.53,126.33,100.44,126.34,95.35,126.34Z"/><path d="M95.48,113.36c5.09,0,10.17,0,15.26,0,1.67,0,3.2.23,3.19,2.32s-1.67,2.23-3.27,2.23H80.44c-1.57,0-3.29,0-3.33-2.15-.06-2.31,1.67-2.4,3.41-2.4C85.51,113.38,90.49,113.36,95.48,113.36Z"/><path d="M95.36,134.85c-5,0-10,0-15,0-1.64,0-3.22-.14-3.3-2.22s1.52-2.33,3.16-2.33h30.52c1.64,0,3.23.21,3.15,2.34s-1.67,2.21-3.31,2.21C105.53,134.83,100.45,134.85,95.36,134.85Z"/><path d="M60.26,50.41q-15.15,0-30.3,0c-1.49,0-3.09,0-3.38-1.82s1-2.69,2.79-2.68h60c.81,0,1.63,0,2.45,0a2.15,2.15,0,0,1,2.37,2.24,2.13,2.13,0,0,1-2.4,2.21c-2.85,0-5.71,0-8.57,0Z"/><path d="M55.05,42H30c-1.88,0-3.73-.28-3.44-2.71.23-2,2-1.94,3.57-1.94q20,0,40,0c3.47,0,6.93,0,10.39,0,1.74,0,3.59,0,3.63,2.22,0,2.39-2,2.44-3.76,2.44Z"/></g></g></svg>