<svg xmlns="http://www.w3.org/2000/svg" viewBox="0 0 320.1 399.83"><defs><style>.cls-1{fill:#040404;}</style></defs><title>Recurso 13</title><g id="Capa_2" data-name="Capa 2"><g id="Capa_1-2" data-name="Capa 1"><path class="cls-1" d="M203,0c2.54,1.32,4.4,3.44,6.37,5.42,7.64,7.64,15.31,15.24,22.86,23A12.8,12.8,0,0,0,238.45,32c11.55,3,23,6.31,34.6,9.25,3.65.93,5.48,3,6.38,6.47,3,11.68,6.26,23.32,9.26,35a10.77,10.77,0,0,0,3,5.27c8.49,8.44,16.86,17,25.42,25.38,2.86,2.79,3.57,5.59,2.46,9.45-3.24,11.35-6.13,22.81-9.27,34.19a12.48,12.48,0,0,0-.05,6.83c3.14,11.52,6.05,23.1,9.32,34.59,1.06,3.76.23,6.42-2.48,9.07-8.47,8.28-16.75,16.75-25.21,25a12.86,12.86,0,0,0-3.61,6.25c-2.91,11.18-6,22.3-8.84,33.51-1.06,4.25-3.13,6.81-7.64,7.61-3.95.69-7.77,2.05-11.67,3.13-.19,1.61,1,2.66,1.65,3.84q20.29,35.28,40.68,70.51c.39.68.81,1.33,1.18,2,1.51,2.82,3,5.83.66,8.72-2.14,2.69-5.26,1.7-8,1q-15.24-4-30.43-8.24c-2.36-.66-3.28-.32-3.92,2.28-2.57,10.33-5.47,20.57-8.2,30.86-.73,2.76-1.67,5.37-4.94,5.76s-5.26-1.52-6.81-4.21c-13.79-24-27.66-47.9-41.39-71.9a8.92,8.92,0,0,0-6.13-4.7c-7.32-1.75-14.56-3.81-21.82-5.79-4.26-1.17-6.38-4.21-5.36-7.58s4.18-4.85,8.56-3.68c6.77,1.79,13.56,3.54,20.29,5.49,2.37.69,4,.42,5.8-1.46,7.7-7.93,15.65-15.63,23.39-23.53a15.69,15.69,0,0,1,7.61-4.37c10.68-2.76,21.3-5.78,32-8.43a5,5,0,0,0,4.19-4.24c2.84-10.92,5.87-21.8,8.7-32.73a13,13,0,0,1,3.67-6.26c8.15-8,16.2-16.19,24.36-24.23a4.14,4.14,0,0,0,1.31-4.74c-3.13-11.26-6-22.58-9.07-33.85a11,11,0,0,1,0-6.1c3.05-11.14,5.87-22.34,9-33.45a4.73,4.73,0,0,0-1.4-5.44c-8.07-8-16-16-24.05-24a13.82,13.82,0,0,1-3.77-6.65c-2.8-10.8-5.78-21.56-8.54-32.37a5.35,5.35,0,0,0-4.48-4.44c-10.95-2.77-21.8-5.86-32.73-8.7A12.43,12.43,0,0,1,226.23,39C218.17,30.83,210,22.78,202,14.6a4.42,4.42,0,0,0-5-1.4c-11,3.08-22.07,5.87-33.08,8.89a13.14,13.14,0,0,1-7.25,0c-10.88-3-21.83-5.79-32.69-8.84-2.42-.67-3.94-.37-5.74,1.48-7.71,7.94-15.65,15.65-23.43,23.51a15,15,0,0,1-7.23,4.25c-10.94,2.8-21.8,5.89-32.74,8.68a4.41,4.41,0,0,0-3.73,3.7c-2.85,11.06-6,22-8.84,33.1a13.21,13.21,0,0,1-3.6,6.3c-8,7.87-15.82,15.84-23.83,23.66-1.84,1.81-2.54,3.31-1.75,6,3.05,10.47,5.65,21.06,8.57,31.57a16.37,16.37,0,0,1,0,9.15c-2.94,10.5-5.56,21.08-8.62,31.54-.84,2.86-.2,4.46,1.8,6.4,7.92,7.72,15.63,15.65,23.5,23.43a13.85,13.85,0,0,1,3.82,6.62C45,243.59,48,254.48,50.77,265.42a4.81,4.81,0,0,0,4,4c11.06,2.83,22.08,5.85,33.12,8.75a13.34,13.34,0,0,1,6.24,3.74c7.84,8,15.85,15.8,23.64,23.84,1.91,2,3.57,2.33,6.14,1.57,7-2.08,14-3.93,21-5.71,5.27-1.32,9.05,1.83,8.17,6.6-.56,3-2.83,4.17-5.46,4.87-7.27,1.94-14.53,3.93-21.83,5.74a8,8,0,0,0-5.55,4.21Q100,358.35,79.61,393.55c-.59,1-1.13,2.05-1.78,3-1.37,2.08-3.19,3.55-5.81,3.19s-4.29-2.14-5-4.79c-2.76-10.28-5.7-20.51-8.26-30.84-.78-3.13-1.59-4.09-5-3.07-9.69,2.9-19.51,5.37-29.3,8a15.84,15.84,0,0,1-4.22.57c-3.89,0-5.63-2.29-5-6.09a16.12,16.12,0,0,1,2.3-5.33Q38.08,322.58,58.6,287c.7-1.21,1.35-2.45,2.17-4-4.74-1.24-9.08-2.5-13.48-3.49-3.73-.84-5.73-3-6.68-6.69-3-11.69-6.25-23.32-9.24-35a10.88,10.88,0,0,0-3.05-5.26c-8.4-8.34-16.66-16.83-25.16-25.08-3-2.88-3.82-5.7-2.66-9.74,3.27-11.35,6.13-22.81,9.27-34.2a12.26,12.26,0,0,0,0-6.82C6.65,145.35,3.81,133.88.55,122.53c-1.17-4.08-.2-6.88,2.73-9.73,8.51-8.24,16.79-16.71,25.22-25a10.91,10.91,0,0,0,3.06-5.26c3-11.43,6.2-22.79,9.07-34.24,1.08-4.32,3.4-6.56,7.7-7.61,11.21-2.76,22.34-5.85,33.52-8.76a13,13,0,0,0,6.27-3.59C97.45,18.81,106.9,9.42,116.31,0H121c.13.2.23.54.41.58,11,2.94,22,5.7,33,8.85a20.32,20.32,0,0,0,12.06-.07C177.5,6,188.9,3.76,199.87,0ZM34.42,353.91c8.18-1.45,16-4.14,24.07-6.18,5.54-1.4,7.92,0,9.44,5.6,2.19,8.06,4.36,16.13,6.72,24.87,1-1.49,1.65-2.38,2.2-3.33q16.35-28.31,32.67-56.62c.71-1.24,2.09-2.31.33-4-4-3.84-7.81-7.89-11.89-12-.91,1.51-1.59,2.61-2.23,3.72Q89.1,317.38,82.5,328.84c-1,1.69-2,3.39-4.1,3.9A6,6,0,0,1,72,331c-2-2.34-1.47-4.82-.09-7.23,5.23-9.11,10.39-18.27,15.8-27.27,1.38-2.29,1-3.48-.78-5.18-3.17-3-7.46-2.67-11.11-4.19-2.38-1-3.67-.35-4.9,1.93-3.34,6.16-7,12.16-10.45,18.23Q47.24,330.37,34,353.5c-.34.26-.53.55-.06.85C34,354.38,34.26,354.07,34.42,353.91Zm252,.35c0-.66.1-1,0-1.14Q267.7,320.54,248.92,288c-.68-1.18-1.44-1.68-2.82-1.28-3.49,1-7.06,1.77-10.49,2.94-4.05,1.38-4.71,3.47-2.6,7.13,5.19,9,10.42,18,15.54,27,2.27,4,1.56,7.38-1.66,9.13-2.95,1.59-6.11.36-8.47-3.32-.42-.66-.76-1.36-1.15-2-4.42-7.64-8.88-15.26-13.21-22.95-1.12-2-1.8-2.81-3.73-.64a127.71,127.71,0,0,1-9.38,9.38c-1.58,1.46-1.49,2.5-.45,4.22,3.17,5.21,6.13,10.56,9.18,15.84,8.56,14.83,17.13,29.65,26.08,45.13L252.3,354c1.75-6.51,3.9-7.71,10.5-6C270.65,350.11,278.5,352.16,286.46,354.26Z"/><path class="cls-1" d="M160.37,275.31c-56.45.05-104.87-41.19-113.7-96.43a96.55,96.55,0,0,1-1.44-13.56c-.07-4.37,2-6.82,5.64-6.89S56.66,160.72,57,165c2.38,35.82,18.46,63.75,48.82,82.92,61.26,38.68,143.65,1.85,155.84-69.46,10-58.52-29.24-112.27-88-120.56C121.42,50.58,70.9,85.81,59.34,137.58a16.68,16.68,0,0,1-.91,3.38,5.44,5.44,0,0,1-6.32,3.43,5.34,5.34,0,0,1-4.72-5.78,35.26,35.26,0,0,1,2.18-9.87C65,81.73,96.94,53.32,146,46.38,206.73,37.79,263.55,81,273.44,141.92c10.39,64-34.29,124-98.38,132.36C170,274.93,165,275,160.37,275.31Z"/><path class="cls-1" d="M160.11,251c-45.59.32-84.75-34.44-90-79.89A90.6,90.6,0,0,1,148,70.46c21.68-3,41.82,1.74,60.38,13.26,3.37,2.09,4.36,5.31,2.7,8.27s-5.22,3.9-8.76,1.71A80,80,0,0,0,161.4,81.36c-40.93-1-75.35,29.89-80,71.69-4.32,38.7,23.35,76.32,62.09,84.42a78.88,78.88,0,0,0,95.31-82.95,76.56,76.56,0,0,0-15.93-42c-.71-.93-1.47-1.82-2.13-2.79-2.08-3.06-1.69-6.28.94-8.3s5.86-1.68,8.28,1.2a84.6,84.6,0,0,1,13.68,22.56c22.22,54.41-10.1,113.63-68,124.52A84.29,84.29,0,0,1,160.11,251Z"/><path class="cls-1" d="M210.25,150c.09,2.66-1.38,5.17-3.61,7.33-4.57,4.44-9.08,8.95-13.73,13.3a4.32,4.32,0,0,0-1.45,4.45c1.17,6.25,2.12,12.54,3.32,18.79.84,4.4-.36,8-3.86,10.71s-7.48,2.72-11.38.71c-5.64-2.91-11.3-5.81-16.82-8.94a4.82,4.82,0,0,0-5.36,0c-5.44,3-11,5.82-16.5,8.73-4,2.13-8,2.23-11.72-.57s-4.68-6.56-3.76-11.1c1.24-6.1,2.11-12.28,3.25-18.41a4.34,4.34,0,0,0-1.48-4.44c-4.63-4.37-9.1-8.92-13.71-13.3-3.37-3.2-4.52-7-3.06-11.33s4.91-6.4,9.45-7c6.18-.76,12.33-1.82,18.5-2.63a4.31,4.31,0,0,0,3.74-2.76c2.71-5.75,5.62-11.39,8.4-17.11,1.92-4,4.86-6.34,9.39-6.41,4.69-.06,7.77,2.32,9.77,6.43,2.66,5.48,5.57,10.84,8.05,16.4a5.41,5.41,0,0,0,4.87,3.56c6.18.77,12.35,1.68,18.51,2.64C206.73,140,210.28,144,210.25,150Zm-14,.23c-6.43-.9-12.57-1.92-18.74-2.59-4.12-.45-6.91-2.11-8.65-6.07-2.58-5.87-5.61-11.55-8.78-18-3.12,6.3-6.13,11.85-8.62,17.61-1.83,4.25-4.77,6-9.21,6.48-6.11.64-12.18,1.72-18.27,2.61,4.89,5.07,9.48,10,14.24,14.72,2.31,2.3,3.31,4.63,2.62,8-1.37,6.72-2.33,13.52-3.53,20.73,5.8-3,11.37-5.56,16.52-8.76,4.45-2.77,8.25-2.59,12.63.05,5.12,3.07,10.57,5.6,16.38,8.63-1.22-7.27-2.08-13.84-3.48-20.29-.79-3.69.32-6.16,2.86-8.65C186.89,160.07,191.36,155.23,196.22,150.18Z"/></g></g></svg>