<svg xmlns="http://www.w3.org/2000/svg" viewBox="0 0 400 399.85"><defs><style>.cls-1{fill:#020202;}</style></defs><title>Recurso 14</title><g id="Capa_2" data-name="Capa 2"><g id="Capa_1-2" data-name="Capa 1"><path class="cls-1" d="M138.2,225.68c-4-7.79-8.31-15.2-10.37-23.29-2.23-8.79-7.17-14.83-14.42-19.73-4.65-3.14-8.87-6.94-13.25-10.5-7.87-6.4-11.36-14.55-9-24.58s8.92-15.89,18.94-18a19.44,19.44,0,0,0,2-.65c-5.22-10.46-10.23-20.81-15.53-31a31.58,31.58,0,0,1-2-26c3.42-9.95-.87-18.48-10.89-22-4.55-1.61-9.12-3.12-13.71-4.58-2.93-.93-5-2.59-5.38-5.79s1.39-5.19,4-6.8C102.52,12,139.23,1.07,178.82.25,198.69-.16,218.58,0,238.45.17A66.64,66.64,0,0,1,301.13,89c-4.27,12.4-8.85,24.69-13.41,37-.79,2.13-1.08,3.06,1.79,3.57,10,1.79,16.75,7.68,19.29,17.6,2.58,10.14-.82,18.49-8.83,25-7.19,5.84-14.45,11.59-21.68,17.39-.92.74-2.05,1.31-2.43,2.58a186.65,186.65,0,0,1-14,33.68c10.66,0,20.81-.13,31,0,9.79.17,19.64-1,29.35.68A31.72,31.72,0,0,1,348.25,257c.19,7.92.12,15.85,0,23.77,0,2.12.44,3.26,2.54,4.27,26.67,12.8,42.64,33.89,48,62.92,1.88,10.23,1,20.63,1.08,31,.05,4.56.07,9.13,0,13.7-.08,4.73-2.5,7.08-7.24,7.22-.81,0-1.61,0-2.42,0H9.87c-8,0-9.79-1.7-9.65-9.63.23-13-1-26.09.73-39,4-29.67,19.53-51.41,46.17-65,3.74-1.9,4.77-3.89,4.75-7.83,0-8.7-1-17.48.54-26.12a31.78,31.78,0,0,1,31.44-26.44c17.46-.13,34.92,0,52.38,0C136.72,225.77,137.22,225.73,138.2,225.68ZM200,386.94q65.67,0,131.34.08c3.35,0,4.13-.77,4.12-4.12-.13-41-.08-81.92-.09-122.88,0-13.6-7.83-21.35-21.56-21.35H86.22c-13.71,0-21.55,7.76-21.56,21.35,0,41,0,81.93-.08,122.89,0,3.35.77,4.12,4.12,4.11Q134.37,386.84,200,386.94ZM87.21,37.05c19.63,9.18,24.76,20.73,19,41.32a16.42,16.42,0,0,0,1.18,12.12c3.11,6.23,6.33,12.4,9.28,18.7,1.06,2.27,1.83,2.11,3.69.85,13.55-9.15,27.21-18.14,40.78-27.25,11-7.37,23-11.55,36.18-11.67A55.78,55.78,0,0,0,233.55,58c4.44-3.68,8.92-7.31,13.48-10.84,3.89-3,7.46-2.44,10.31,1.6,2.31,3.28,4.51,6.65,6.71,10,5.26,8.06,11.15,15.75,14.73,24.82,2,5.14,3.2,10.52,4.61,16.55,1.94-5.33,3.69-9.94,5.3-14.6C301.28,49.15,275.75,13.16,237.28,13c-16.24,0-32.48.13-48.72,0a215.68,215.68,0,0,0-53.05,5.73A201.7,201.7,0,0,0,87.21,37.05ZM199.9,225.77c14.5,0,29-.07,43.5.07a5.16,5.16,0,0,0,5.32-3.06,168.46,168.46,0,0,0,21.58-70.9c.74-10.3.74-10.22-9.68-10-2.21,0-2.64.75-2.6,2.75.11,5.64.13,11.28,0,16.92a19.26,19.26,0,0,1-19,19.05c-4.3.11-8.6.07-12.89,0-11.27-.14-19.51-8.36-19.68-19.59-.1-6.19-.1-6.19-6.32-6.19-6.46,0-6.46,0-6.58,6.32a19.34,19.34,0,0,1-19.41,19.45c-4.43.08-8.87.11-13.3,0a19.29,19.29,0,0,1-18.83-18.78c-.11-3.62,0-7.25,0-10.87,0-9.05,0-8.85-9.14-9.1-3.54-.1-3.78,1.3-3.63,4.13a171.63,171.63,0,0,0,22,76.53c1.34,2.38,2.74,3.35,5.57,3.32C171.16,225.68,185.53,225.77,199.9,225.77Zm41-96.7q13.69,0,27.39,0c1.24,0,2.76.53,2.68-1.78-.36-9.78.63-19.58-1.28-29.32-2.27-11.56-8.85-20.85-15.2-30.3C250.12,61.13,250,61,244,66.12c-13.79,11.82-29.54,17.95-47.83,18-10.15,0-19.37,3.68-27.8,9.37-11.56,7.79-23.08,15.65-34.84,23.14-3.49,2.22-4.77,4.58-4.57,8.67.16,3.15.91,3.91,4,3.88,17.59-.16,35.19-.09,52.78-.07,4.86,0,7.37,2.1,7.83,6.24.24,2.19-1.1,5.21.75,6.38,1.63,1,4.43.25,6.71.27a4.28,4.28,0,0,1,.8,0c3.89.78,5-.76,4.74-4.65-.35-6,2.08-8.23,8.13-8.24Q227.82,129.05,240.91,129.07ZM51.76,298.23c-1.41.7-2.49,1.14-3.47,1.74-17.79,10.71-29,26.19-33.6,46.45-2.77,12.31-1.18,24.85-1.66,37.28-.1,2.6.61,3.35,3.27,3.31,10.45-.17,20.92-.21,31.37,0,3.24.07,4.21-.59,4.19-4-.18-23.33-.1-46.66-.1-70Zm296.82,0a11,11,0,0,0-.25,1.46q0,42.24-.07,84.48c0,2.32.67,2.87,2.9,2.85q16.5-.17,33,0c2.25,0,2.94-.55,2.89-2.86-.14-7.91,0-15.82-.08-23.73a71,71,0,0,0-38.38-62.2ZM168.52,142c-4.2,0-7.69.1-11.16,0-1.88-.07-2.58.44-2.49,2.42.15,3.61,0,7.22,0,10.84,0,12,.6,12.56,12.7,12.56,12.64,0,13.1-.44,13.08-13,0-4.12,1.46-9.7-.63-12C177.67,140.17,172,142.29,168.52,142Zm64,0c-3.48,0-7,.09-10.43,0-2-.07-2.84.3-2.76,2.57.18,5.48,0,11,.09,16.45.09,4.23,2.55,6.66,6.8,6.77,4,.12,8,.11,12,0,4.27-.11,6.78-2.5,6.87-6.7.13-5.61,0-11.24.08-16.85,0-1.77-.5-2.31-2.26-2.25C239.47,142.06,236,142,232.51,142Zm48.55,28.87c4.81-4,9.14-7.11,12.91-10.81,3.23-3.19,3.66-7.44,1.75-11.59a10.65,10.65,0,0,0-9.48-6.43c-1.1-.07-2.47-.54-2.52,1.5A231.6,231.6,0,0,1,281.06,170.84ZM119,170.74a224.35,224.35,0,0,1-2.65-27.25c0-2.07-1.45-1.51-2.53-1.48a10.74,10.74,0,0,0-9.75,7.18,10.14,10.14,0,0,0,2.85,11.72C110.47,164.14,114.36,167,119,170.74Z"/><path class="cls-1" d="M200.17,316a25.79,25.79,0,1,1-25.92,25.75A25.81,25.81,0,0,1,200.17,316Zm12.74,25.59a12.88,12.88,0,1,0-12.48,13.06A13,13,0,0,0,212.91,341.62Z"/><path class="cls-1" d="M129.13,277.27a7.48,7.48,0,0,1,2.62-5.24c7.7-7.68,15.43-15.32,23-23.1,1.63-1.66,2.5-1.53,4.1,0,7.2,7,7.25,7,.19,14-4,4-7.86,8.1-12,11.9-2.17,2-1.85,3.12.11,5,5.63,5.37,11,11,16.59,16.43,1.68,1.62,2.2,2.66.14,4.37-2.47,2.05-4.54,6-7,6.21s-4.68-3.9-7-6.14c-6-5.92-12-11.95-18-17.91C130.36,281.29,129.11,279.61,129.13,277.27Z"/><path class="cls-1" d="M271,277.13a7.76,7.76,0,0,1-2.65,5.58c-7.7,7.68-15.43,15.32-23,23.1-1.7,1.74-2.66,1.45-4.08-.17-2.12-2.4-6-4.5-6.25-7s3.92-4.67,6.14-7c3.82-4,7.65-7.93,11.69-11.64,2.14-2,2.45-3.12.13-5.29-5.69-5.31-11-11-16.61-16.41-1.73-1.66-2.09-2.7-.07-4.37,2.46-2,4.55-6,7-6.16s4.68,3.91,7,6.15c5.94,5.82,11.78,11.76,17.68,17.62C269.56,273.23,271,275,271,277.13Z"/><path class="cls-1" d="M224.2,255.85c-.41.57-.8,1.11-1.2,1.64q-17.72,23.61-35.39,47.25c-1.35,1.8-2.18,1.95-4,.61-8.16-5.92-8.2-5.85-2.26-13.77,10.28-13.7,20.6-27.39,30.78-41.16,1.62-2.18,2.79-2.74,4.92-.72,1.74,1.64,3.84,2.9,5.75,4.37C223.35,254.53,224.17,254.87,224.2,255.85Z"/></g></g></svg>