<svg xmlns="http://www.w3.org/2000/svg" xmlns:xlink="http://www.w3.org/1999/xlink" viewBox="0 0 886.03 240.15"><defs><style>.cls-1{fill:url(#Degradado_sin_nombre_61);}.cls-2{fill:url(#Degradado_sin_nombre_4);}.cls-3{fill:url(#Degradado_sin_nombre_53);}.cls-4{fill:url(#Degradado_sin_nombre_53-2);}.cls-5{fill:url(#Degradado_sin_nombre_4-2);}.cls-6{fill:url(#Degradado_sin_nombre_53-3);}.cls-7{fill:#fff;}.cls-8{fill:#717070;}.cls-9{fill:#0072aa;}</style><radialGradient id="Degradado_sin_nombre_61" cx="5.17" cy="217.24" r="0.02" gradientUnits="userSpaceOnUse"><stop offset="0" stop-color="#1eb1e7"/><stop offset="0.46" stop-color="#007ea8"/><stop offset="1" stop-color="#153557"/></radialGradient><radialGradient id="Degradado_sin_nombre_4" cx="14.51" cy="54.73" r="97.94" gradientUnits="userSpaceOnUse"><stop offset="0" stop-color="#1eb1e7"/><stop offset="0.48" stop-color="#0072aa"/><stop offset="1" stop-color="#153557"/></radialGradient><radialGradient id="Degradado_sin_nombre_53" cx="71.67" cy="148.87" r="59.95" gradientUnits="userSpaceOnUse"><stop offset="0" stop-color="#e8e8e8"/><stop offset="1" stop-color="#717070"/></radialGradient><radialGradient id="Degradado_sin_nombre_53-2" cx="161.19" cy="215.65" r="56.17" xlink:href="#Degradado_sin_nombre_53"/><radialGradient id="Degradado_sin_nombre_4-2" cx="129.67" cy="167.05" r="113.96" xlink:href="#Degradado_sin_nombre_4"/><radialGradient id="Degradado_sin_nombre_53-3" cx="183.93" cy="35.9" r="89.47" xlink:href="#Degradado_sin_nombre_53"/></defs><title>Recurso 3</title><g id="Capa_2" data-name="Capa 2"><g id="Capa_1-2" data-name="Capa 1"><path class="cls-1" d="M5.2,217.23l-.06,0"/><path class="cls-1" d="M5.2,217.25l-.06,0"/><path class="cls-2" d="M54.09,156.64c-5-4.33-9.92-8.85-14.78-13.62A316.57,316.57,0,0,1,14.92,116.4c-.71-.85-1.39-1.71-2.1-2.6-.09-.12-.18-.21-.27-.33A60,60,0,0,1,39.31,21V87.51a63,63,0,0,0-.71,45.65c.24.59.45,1.18.71,1.78A62,62,0,0,0,54.09,156.64Z"/><path class="cls-3" d="M112.08,172.44c-6,4.86-12.2,9.48-18.35,13.89a354,354,0,0,1-33.54-24.54c-1.93-1.6-3.88-3.23-5.81-4.89a1.84,1.84,0,0,0-.29-.26,62,62,0,0,1-14.78-21.7c-.26-.6-.47-1.19-.71-1.78a63,63,0,0,1,.71-45.65c7.38,17.11,19,33.42,32.92,48.58A332.32,332.32,0,0,0,112,172.42S112.05,172.44,112.08,172.44Z"/><path class="cls-4" d="M223.51,240.15c-2.46-.42-53.49-9.62-111.58-42.75,6.16-3.43,12.41-7.13,18.65-11.13A618.39,618.39,0,0,0,223.51,240.15Z"/><path class="cls-5" d="M189.32,102.49c-.27,2.69-.68,5.45-1.24,8.32a119.47,119.47,0,0,1-8.62,26.32h0A171.09,171.09,0,0,1,166.79,160a366.42,366.42,0,0,1-36.21,26.23c-6.24,4-12.49,7.7-18.65,11.13C53.67,230.11,2.49,239.71,0,240.15c2.34-1,48.49-21.49,93.73-53.82,6.15-4.41,12.31-9,18.35-13.89a.14.14,0,0,0,.09-.05A310.19,310.19,0,0,0,138,149.32c3.1-3.1,6.12-6.3,9-9.53q6.43-7.18,12-14.74a132.56,132.56,0,0,0,17.17-31v0c.85-2.36,1.65-4.73,2.33-7.13a82.51,82.51,0,0,0,3.35-27.27,71,71,0,0,1,6,16.29c0,.17.09.32.12.5A78.92,78.92,0,0,1,189.32,102.49Z"/><path class="cls-6" d="M243.85,73.66A53.58,53.58,0,0,0,232.6,58.94c-.5-.47-1-.94-1.57-1.39a1.83,1.83,0,0,0-.35-.32,2.79,2.79,0,0,0-1.22-.39,2.31,2.31,0,0,0-2.37,2.22.83.83,0,0,0,0,.27.31.31,0,0,0,0,.23v0a70.57,70.57,0,0,1-14.71,54.74c-.41.5-.83,1-1.27,1.51v0a3.18,3.18,0,0,1-.3.36c-.38.44-.74.88-1.15,1.33-2.31,2.81-4.68,5.53-7.11,8.2A326.33,326.33,0,0,1,166.79,160a171.09,171.09,0,0,0,12.64-22.91h0a119.47,119.47,0,0,0,8.62-26.32c.56-2.87,1-5.63,1.24-8.32a78.92,78.92,0,0,0-1.39-26.11c0-.18-.09-.33-.12-.5a71,71,0,0,0-6-16.29c-.8-1.54-1.63-3-2.43-4.26a67.23,67.23,0,0,0-4.91-6.93,3.65,3.65,0,0,1-.36-.44,46.62,46.62,0,0,0-4.53-4.74,1.09,1.09,0,0,0-.23-.2,62.39,62.39,0,0,0-14.1-9.83,62.06,62.06,0,0,0-54.73-.71c-1,.5-2,1-3,1.56.53-.91,1.12-1.83,1.71-2.72a70.26,70.26,0,0,1,92-22.82c1,.5,2,1.06,3,1.68C207.82,18.3,222.59,34,234.35,54.32A156.05,156.05,0,0,1,243.85,73.66Z"/><path class="cls-7" d="M138.75,15.1s1.13-3.93,6.84-4,7.08-1.88,7.08-1.88-2.07,6.53-5.67,7.25S142.36,14,138.75,15.1Z"/><path class="cls-8" d="M270.88,171v5.19c0,.6,0,1.18-.05,1.75s-.06,1-.09,1.32h.14a5,5,0,0,1,1.73-1.66,6.06,6.06,0,0,1,7.26,1.26,8.76,8.76,0,0,1,1.65,5.78,10.59,10.59,0,0,1-.76,4.27,5.74,5.74,0,0,1-2.12,2.63,5.85,5.85,0,0,1-3.21.88,5.5,5.5,0,0,1-2.84-.65,5.2,5.2,0,0,1-1.7-1.54h-.2l-.52,1.92h-2V171Zm4,8.15a4.18,4.18,0,0,0-2.36.59,3.19,3.19,0,0,0-1.26,1.76,10,10,0,0,0-.39,3v.2a7.83,7.83,0,0,0,.87,4.08,3.41,3.41,0,0,0,3.15,1.42,3.22,3.22,0,0,0,2.85-1.44,7.42,7.42,0,0,0,1-4.12,7,7,0,0,0-1-4.09A3.26,3.26,0,0,0,274.89,179.1Z"/><path class="cls-8" d="M283,177.12h3l3.18,8.63c.16.44.31.88.45,1.3s.27.83.37,1.22.19.78.25,1.16h.1c.11-.46.26-1,.46-1.68s.42-1.33.65-2l3.05-8.62h2.93L291,194.22a9.9,9.9,0,0,1-1.28,2.45,4.93,4.93,0,0,1-4.24,2.13,7.63,7.63,0,0,1-1.14-.08,6,6,0,0,1-.85-.17v-2.17a7.15,7.15,0,0,0,.72.12,6.44,6.44,0,0,0,.89.06,3.11,3.11,0,0,0,1.48-.34,3.15,3.15,0,0,0,1.06-.94,6.21,6.21,0,0,0,.74-1.43l.68-1.77Z"/><path class="cls-8" d="M308.36,171.45a1.77,1.77,0,0,1,1.13.38,1.87,1.87,0,0,1,0,2.48,1.72,1.72,0,0,1-1.13.39,1.68,1.68,0,0,1-1.12-.39,1.93,1.93,0,0,1,0-2.48A1.73,1.73,0,0,1,308.36,171.45Zm1.35,5.67v15H307v-15Z"/><path class="cls-8" d="M330.67,182a11.47,11.47,0,0,1-1.24,5.61,7.82,7.82,0,0,1-3.58,3.38,12.91,12.91,0,0,1-5.69,1.14h-5.45V172.22h6.07a11.66,11.66,0,0,1,5.26,1.11,7.9,7.9,0,0,1,3.42,3.28A10.81,10.81,0,0,1,330.67,182Zm-2.92.08a9.42,9.42,0,0,0-.83-4.21,5.34,5.34,0,0,0-2.43-2.47,8.66,8.66,0,0,0-3.93-.81H317.5v15.17h2.57q3.84,0,5.76-1.93T327.75,182.05Z"/><path class="cls-8" d="M340.55,176.85a6.39,6.39,0,0,1,3.36.83,5.59,5.59,0,0,1,2.15,2.36,8,8,0,0,1,.75,3.59v1.55H336.64a5.42,5.42,0,0,0,1.23,3.69,4.36,4.36,0,0,0,3.36,1.28,10.81,10.81,0,0,0,2.54-.27,13.91,13.91,0,0,0,2.32-.8v2.3a11.18,11.18,0,0,1-2.27.75,13.23,13.23,0,0,1-2.71.24,8,8,0,0,1-3.81-.87,6.1,6.1,0,0,1-2.55-2.58,8.78,8.78,0,0,1-.91-4.2,9.81,9.81,0,0,1,.83-4.24,6.2,6.2,0,0,1,2.34-2.7A6.58,6.58,0,0,1,340.55,176.85Zm0,2.12a3.49,3.49,0,0,0-2.67,1.08,5.06,5.06,0,0,0-1.18,3.09h7.37a6.1,6.1,0,0,0-.39-2.18,3.23,3.23,0,0,0-1.15-1.46A3.38,3.38,0,0,0,340.54,179Z"/><path class="cls-8" d="M367.11,176.85a5.06,5.06,0,0,1,3.76,1.29,5.77,5.77,0,0,1,1.27,4.16v9.8h-2.7v-9.46a4,4,0,0,0-.73-2.65,2.64,2.64,0,0,0-2.17-.89,3.4,3.4,0,0,0-2.94,1.23,6.09,6.09,0,0,0-.9,3.61v8.16H360v-9.46a5.1,5.1,0,0,0-.33-2,2.45,2.45,0,0,0-1-1.17,3,3,0,0,0-1.62-.4,3.7,3.7,0,0,0-2.24.61,3.42,3.42,0,0,0-1.21,1.78,9.74,9.74,0,0,0-.37,2.9v7.71h-2.73v-15h2.16l.39,2.06h.15a4.42,4.42,0,0,1,1.14-1.29,5,5,0,0,1,1.53-.78,5.76,5.76,0,0,1,1.78-.26,6,6,0,0,1,2.84.61,3.77,3.77,0,0,1,1.7,1.86h.17a4.49,4.49,0,0,1,2-1.87A6.34,6.34,0,0,1,367.11,176.85Z"/><path class="cls-8" d="M384.05,176.85a5.43,5.43,0,0,1,4.37,1.93q1.63,1.93,1.64,5.79a10.66,10.66,0,0,1-.76,4.29,5.49,5.49,0,0,1-5.32,3.51,5.91,5.91,0,0,1-2-.31,4.73,4.73,0,0,1-1.49-.81,6,6,0,0,1-1-1.1h-.18q.06.54.12,1.23t.06,1.26v6.12h-2.75V177.12h2.25l.36,2.15h.14a5.71,5.71,0,0,1,1-1.22,4.61,4.61,0,0,1,1.5-.88A5.94,5.94,0,0,1,384.05,176.85Zm-.62,2.25a4.14,4.14,0,0,0-2.31.57,3.17,3.17,0,0,0-1.26,1.68,8.72,8.72,0,0,0-.43,2.8v.43a10.55,10.55,0,0,0,.38,3,3.48,3.48,0,0,0,1.26,1.87,4,4,0,0,0,2.38.65,3.23,3.23,0,0,0,2.13-.7,4,4,0,0,0,1.26-2,9.4,9.4,0,0,0,.42-2.94,7.27,7.27,0,0,0-.94-4A3.19,3.19,0,0,0,383.43,179.1Z"/><path class="cls-8" d="M395.25,171.45a1.73,1.73,0,0,1,1.12.38,1.87,1.87,0,0,1,0,2.48,1.68,1.68,0,0,1-1.12.39,1.66,1.66,0,0,1-1.12-.39,1.9,1.9,0,0,1,0-2.48A1.71,1.71,0,0,1,395.25,171.45Zm1.35,5.67v15h-2.74v-15Z"/><path class="cls-8" d="M407.13,176.85a6.39,6.39,0,0,1,3.36.83,5.59,5.59,0,0,1,2.15,2.36,8.19,8.19,0,0,1,.74,3.59v1.55H403.22a5.37,5.37,0,0,0,1.23,3.69,4.36,4.36,0,0,0,3.36,1.28,10.81,10.81,0,0,0,2.54-.27,13.52,13.52,0,0,0,2.31-.8v2.3a10.89,10.89,0,0,1-2.26.75,13.3,13.3,0,0,1-2.71.24,8,8,0,0,1-3.81-.87,6,6,0,0,1-2.55-2.58,8.78,8.78,0,0,1-.91-4.2,9.81,9.81,0,0,1,.83-4.24,6.24,6.24,0,0,1,2.33-2.7A6.64,6.64,0,0,1,407.13,176.85Zm0,2.12a3.47,3.47,0,0,0-2.67,1.08,5.06,5.06,0,0,0-1.18,3.09h7.37a5.88,5.88,0,0,0-.4-2.18,3.15,3.15,0,0,0-1.14-1.46A3.4,3.4,0,0,0,407.12,179Z"/><path class="cls-8" d="M424.3,176.85c.27,0,.57,0,.88,0s.59.07.82.12l-.29,2.54c-.21-.05-.47-.1-.75-.14a7.8,7.8,0,0,0-.8,0,4.19,4.19,0,0,0-1.65.33,4,4,0,0,0-1.39.94,4.45,4.45,0,0,0-.94,1.51,5.58,5.58,0,0,0-.34,2v7.93h-2.75v-15h2.21l.32,2.7h.13a7,7,0,0,1,1.12-1.49,4.79,4.79,0,0,1,1.52-1.08A4.45,4.45,0,0,1,424.3,176.85Z"/><path class="cls-8" d="M434.66,176.85a6.38,6.38,0,0,1,3.35.83,5.52,5.52,0,0,1,2.15,2.36,8,8,0,0,1,.75,3.59v1.55H430.74a5.37,5.37,0,0,0,1.24,3.69,4.36,4.36,0,0,0,3.36,1.28,10.81,10.81,0,0,0,2.54-.27,14.14,14.14,0,0,0,2.31-.8v2.3a11.09,11.09,0,0,1-2.26.75,13.33,13.33,0,0,1-2.72.24,8,8,0,0,1-3.81-.87,6.1,6.1,0,0,1-2.55-2.58,8.9,8.9,0,0,1-.91-4.2,10,10,0,0,1,.83-4.24,6.2,6.2,0,0,1,2.34-2.7A6.64,6.64,0,0,1,434.66,176.85Zm0,2.12a3.47,3.47,0,0,0-2.66,1.08,5,5,0,0,0-1.18,3.09h7.36a6.1,6.1,0,0,0-.39-2.18,3.17,3.17,0,0,0-1.15-1.46A3.36,3.36,0,0,0,434.64,179Z"/><path class="cls-9" d="M282,118a3.4,3.4,0,0,0,3.4,3.4h20.39a17,17,0,0,1,0,34H268.38V141.74h37.38a3.4,3.4,0,1,0,0-6.8H285.37a17,17,0,0,1,0-34h37.38v13.6H285.37A3.4,3.4,0,0,0,282,118Z"/><path class="cls-9" d="M329.11,155.33V101h13.6v54.37Z"/><path class="cls-9" d="M418.35,107.76v47.57H404.76V130.21L390,152.31a6.8,6.8,0,0,1-11.31,0L364,130.21v25.12h-13.6V107.76A6.8,6.8,0,0,1,362.84,104l21.53,32.3L405.9,104a6.8,6.8,0,0,1,12.45,3.77Z"/><path class="cls-9" d="M480.48,121.35a20.4,20.4,0,0,1-20.39,20.39H439.71v13.59h-13.6V101h34A20.42,20.42,0,0,1,480.48,121.35Zm-13.59,0a6.79,6.79,0,0,0-6.8-6.79H439.71v13.59h20.38A6.79,6.79,0,0,0,466.89,121.35Z"/><path class="cls-9" d="M526.22,141.74v13.59h-34a6.79,6.79,0,0,1-6.79-6.79V101H499v40.78Z"/><path class="cls-9" d="M543.86,114.56v6.79h20.38v13.59H543.86v6.8h34v13.59H530.26V111.16a10.22,10.22,0,0,1,10.2-10.2h37.37v13.6Z"/><path class="cls-9" d="M619,128.14l21.75,27.18H623.3l-13-16.31-13,16.31h-17.4l21.75-27.18L579.81,101h17.4l13,16.31,13-16.31h17.4Z"/><path class="cls-9" d="M689.31,114.56v6.79H709.7v13.59H689.31v20.39H675.72V111.16A10.21,10.21,0,0,1,685.91,101h37.38v13.6Z"/><path class="cls-9" d="M757.49,148.54H734.43l-3.17,6.79h-15l23.54-50.44a6.8,6.8,0,0,1,12.32,0l23.53,50.44h-15Zm-6.34-13.6L746,123.83l-5.19,11.11Z"/><path class="cls-9" d="M815.83,134.94h13.59A20.42,20.42,0,0,1,809,155.33H795.44a20.42,20.42,0,0,1-20.39-20.39V121.35A20.42,20.42,0,0,1,795.44,101H809a20.42,20.42,0,0,1,20.39,20.39H815.83a6.8,6.8,0,0,0-6.8-6.79H795.44a6.8,6.8,0,0,0-6.8,6.79v13.59a6.8,6.8,0,0,0,6.8,6.8H809A6.82,6.82,0,0,0,815.83,134.94Z"/><path class="cls-9" d="M886,114.56H865.65v40.77h-13.6V114.56H831.67V101H886Z"/></g></g></svg>