<svg xmlns="http://www.w3.org/2000/svg" xmlns:xlink="http://www.w3.org/1999/xlink" viewBox="0 0 886.42 240.15"><defs><style>.cls-1{fill:url(#Degradado_sin_nombre_61);}.cls-2{fill:url(#Degradado_sin_nombre_4);}.cls-3{fill:url(#Degradado_sin_nombre_53);}.cls-4{fill:url(#Degradado_sin_nombre_53-2);}.cls-5{fill:url(#Degradado_sin_nombre_4-2);}.cls-6{fill:url(#Degradado_sin_nombre_53-3);}.cls-7{fill:#fff;}.cls-8{font-size:27.84px;fill:#717070;font-family:OpenSans-Medium, Open Sans;font-weight:500;}.cls-9{font-size:77.66px;fill:#0072aa;font-family:ExMechanicaRegular, Ex Mechanica;}.cls-10{letter-spacing:-0.09em;}.cls-11{letter-spacing:-0.03em;}</style><radialGradient id="Degradado_sin_nombre_61" cx="5.17" cy="217.24" r="0.02" gradientUnits="userSpaceOnUse"><stop offset="0" stop-color="#1eb1e7"/><stop offset="0.46" stop-color="#007ea8"/><stop offset="1" stop-color="#153557"/></radialGradient><radialGradient id="Degradado_sin_nombre_4" cx="14.51" cy="54.73" r="97.94" gradientUnits="userSpaceOnUse"><stop offset="0" stop-color="#1eb1e7"/><stop offset="0.48" stop-color="#0072aa"/><stop offset="1" stop-color="#153557"/></radialGradient><radialGradient id="Degradado_sin_nombre_53" cx="71.67" cy="148.87" r="59.95" gradientUnits="userSpaceOnUse"><stop offset="0" stop-color="#e8e8e8"/><stop offset="1" stop-color="#717070"/></radialGradient><radialGradient id="Degradado_sin_nombre_53-2" cx="161.19" cy="215.65" r="56.17" xlink:href="#Degradado_sin_nombre_53"/><radialGradient id="Degradado_sin_nombre_4-2" cx="129.67" cy="167.05" r="113.96" xlink:href="#Degradado_sin_nombre_4"/><radialGradient id="Degradado_sin_nombre_53-3" cx="183.93" cy="35.9" r="89.47" xlink:href="#Degradado_sin_nombre_53"/></defs><title>Recurso 1</title><g id="Capa_2" data-name="Capa 2"><g id="Capa_1-2" data-name="Capa 1"><path class="cls-1" d="M5.2,217.23l-.06,0"/><path class="cls-1" d="M5.2,217.25l-.06,0"/><path class="cls-2" d="M54.09,156.64c-5-4.33-9.92-8.85-14.78-13.62A316.57,316.57,0,0,1,14.92,116.4c-.71-.85-1.39-1.71-2.1-2.6-.09-.12-.18-.21-.27-.33A60,60,0,0,1,39.31,21V87.51a63,63,0,0,0-.71,45.65c.24.59.45,1.18.71,1.78A62,62,0,0,0,54.09,156.64Z"/><path class="cls-3" d="M112.08,172.44c-6,4.86-12.2,9.48-18.35,13.89a354,354,0,0,1-33.54-24.54c-1.93-1.6-3.88-3.23-5.81-4.89a1.84,1.84,0,0,0-.29-.26,62,62,0,0,1-14.78-21.7c-.26-.6-.47-1.19-.71-1.78a63,63,0,0,1,.71-45.65c7.38,17.11,19,33.42,32.92,48.58A332.32,332.32,0,0,0,112,172.42S112.05,172.44,112.08,172.44Z"/><path class="cls-4" d="M223.51,240.15c-2.46-.42-53.49-9.62-111.58-42.75,6.16-3.43,12.41-7.13,18.65-11.13A618.39,618.39,0,0,0,223.51,240.15Z"/><path class="cls-5" d="M189.32,102.49c-.27,2.69-.68,5.45-1.24,8.32a119.47,119.47,0,0,1-8.62,26.32h0A171.09,171.09,0,0,1,166.79,160a366.42,366.42,0,0,1-36.21,26.23c-6.24,4-12.49,7.7-18.65,11.13C53.67,230.11,2.49,239.71,0,240.15c2.34-1,48.49-21.49,93.73-53.82,6.15-4.41,12.31-9,18.35-13.89a.14.14,0,0,0,.09-.05A310.19,310.19,0,0,0,138,149.32c3.1-3.1,6.12-6.3,9-9.53q6.43-7.18,12-14.74a132.56,132.56,0,0,0,17.17-31v0c.85-2.36,1.65-4.73,2.33-7.13a82.51,82.51,0,0,0,3.35-27.27,71,71,0,0,1,6,16.29c0,.17.09.32.12.5A78.92,78.92,0,0,1,189.32,102.49Z"/><path class="cls-6" d="M243.85,73.66A53.58,53.58,0,0,0,232.6,58.94c-.5-.47-1-.94-1.57-1.39a1.83,1.83,0,0,0-.35-.32,2.79,2.79,0,0,0-1.22-.39,2.31,2.31,0,0,0-2.37,2.22.83.83,0,0,0,0,.27.31.31,0,0,0,0,.23v0a70.57,70.57,0,0,1-14.71,54.74c-.41.5-.83,1-1.27,1.51v0a3.18,3.18,0,0,1-.3.36c-.38.44-.74.88-1.15,1.33-2.31,2.81-4.68,5.53-7.11,8.2A326.33,326.33,0,0,1,166.79,160a171.09,171.09,0,0,0,12.64-22.91h0a119.47,119.47,0,0,0,8.62-26.32c.56-2.87,1-5.63,1.24-8.32a78.92,78.92,0,0,0-1.39-26.11c0-.18-.09-.33-.12-.5a71,71,0,0,0-6-16.29c-.8-1.54-1.63-3-2.43-4.26a67.23,67.23,0,0,0-4.91-6.93,3.65,3.65,0,0,1-.36-.44,46.62,46.62,0,0,0-4.53-4.74,1.09,1.09,0,0,0-.23-.2,62.39,62.39,0,0,0-14.1-9.83,62.06,62.06,0,0,0-54.73-.71c-1,.5-2,1-3,1.56.53-.91,1.12-1.83,1.71-2.72a70.26,70.26,0,0,1,92-22.82c1,.5,2,1.06,3,1.68C207.82,18.3,222.59,34,234.35,54.32A156.05,156.05,0,0,1,243.85,73.66Z"/><path class="cls-7" d="M138.75,15.1s1.13-3.93,6.84-4,7.08-1.88,7.08-1.88-2.07,6.53-5.67,7.25S142.36,14,138.75,15.1Z"/><text class="cls-8" transform="translate(265.82 192.1)">by iDempiere</text><text class="cls-9" transform="translate(265.82 155.33)">SIMPLEX <tspan class="cls-10" x="406.25" y="0">F</tspan><tspan class="cls-11" x="450.75" y="0">A</tspan><tspan x="506.82" y="0">CT</tspan></text></g></g></svg>