<svg xmlns="http://www.w3.org/2000/svg" xmlns:xlink="http://www.w3.org/1999/xlink" viewBox="0 0 136.94 136.94"><defs><style>.cls-1{fill:url(#Degradado_sin_nombre_6);}.cls-2{fill:url(#Degradado_sin_nombre_6-2);}.cls-3{fill:url(#Degradado_sin_nombre_6-3);}.cls-4{fill:url(#Degradado_sin_nombre_6-4);}.cls-5{fill:url(#Degradado_sin_nombre_6-5);}.cls-6{fill:url(#Degradado_sin_nombre_6-6);}.cls-7{fill:url(#Degradado_sin_nombre_6-7);}</style><linearGradient id="Degradado_sin_nombre_6" y1="77.81" x2="136.94" y2="77.81" gradientUnits="userSpaceOnUse"><stop offset="0" stop-color="#1cb0e7"/><stop offset="1" stop-color="#0073a9"/></linearGradient><linearGradient id="Degradado_sin_nombre_6-2" x1="28.08" y1="45.07" x2="127.59" y2="45.07" xlink:href="#Degradado_sin_nombre_6"/><linearGradient id="Degradado_sin_nombre_6-3" x1="57.14" y1="106.85" x2="79.8" y2="106.85" xlink:href="#Degradado_sin_nombre_6"/><linearGradient id="Degradado_sin_nombre_6-4" x1="39.59" y1="42.79" x2="87.73" y2="42.79" xlink:href="#Degradado_sin_nombre_6"/><linearGradient id="Degradado_sin_nombre_6-5" x1="45.77" y1="11.37" x2="81.67" y2="11.37" xlink:href="#Degradado_sin_nombre_6"/><linearGradient id="Degradado_sin_nombre_6-6" x1="67.41" y1="78.77" x2="90.12" y2="78.77" xlink:href="#Degradado_sin_nombre_6"/><linearGradient id="Degradado_sin_nombre_6-7" x1="57.51" y1="42.78" x2="69.75" y2="42.78" xlink:href="#Degradado_sin_nombre_6"/></defs><title>Recurso 7</title><g id="Capa_2" data-name="Capa 2"><g id="Capa_1-2" data-name="Capa 1"><path class="cls-1" d="M136.94,108.59a3.07,3.07,0,0,0-.25.59,11.34,11.34,0,0,1-11.39,9q-18.45,0-36.9,0H86.7c.88,1.76,1.65,3.4,2.52,5,.15.26.76.34,1.16.36a54.12,54.12,0,0,1,6,.3,11.16,11.16,0,0,1,9.1,10.6c.06,1.69-.67,2.48-2.37,2.48H33.84c-1.7,0-2.43-.79-2.37-2.49a11.33,11.33,0,0,1,10.81-10.85c1.43-.06,2.86,0,4.28,0a1.36,1.36,0,0,0,1-.54c.61-1.51,1.12-3.07,1.73-4.78H12.15C4.81,118.21,0,113.42,0,106.1V30.82c0-7.26,4.81-12.09,12-12.1H20.2c1.56,0,2.49.74,2.52,2s-.93,2.05-2.56,2.05c-2.94,0-5.88,0-8.82,0A7.26,7.26,0,0,0,4,30.06Q4,62.42,4,94.78a5.66,5.66,0,0,0,.05.61H132.93V30.86c0-5.14-3-8.12-8.13-8.13H108c-.36,0-.72,0-1.07,0a2,2,0,0,1-2-2,2,2,0,0,1,2-1.93c6.6,0,13.2-.16,19.79.08,4.8.18,8.73,3.83,10,8.55.09.33.22.65.33,1ZM4,99.56c0,2.65-.06,5.14,0,7.64.13,4.1,3.44,7,7.88,7H121.13c1.52,0,3,0,4.55,0a7.14,7.14,0,0,0,7.13-6.33c.26-2.72.05-5.49.05-8.3Zm47.64,24c1.41,0,2.65,0,3.89,0a2,2,0,0,1,2,2,2,2,0,0,1-2,2,9.51,9.51,0,0,1-1.07,0c-3.92,0-7.84,0-11.76,0-3.25,0-6.61,2.71-6.8,5.27h65.15A7.06,7.06,0,0,0,94,127.58q-14,0-28.07,0a7.37,7.37,0,0,1-1.33,0,2,2,0,0,1,0-3.94,6.85,6.85,0,0,1,1.2,0H84.86c-.77-1.55-1.5-2.87-2.09-4.24A1.66,1.66,0,0,0,81,118.19c-8.73,0-17.47,0-26.2,0H53.55Z"/><path class="cls-2" d="M94.15,0c2.62.92,4.62,2.47,5.19,5.36a11.51,11.51,0,0,1,.15,2.12q0,18.8,0,37.57v1.76H101c4.9,0,9.8,0,14.7,0,7,0,11.86,4.88,11.88,11.85q0,6.56,0,13.11c0,4.31-2.8,7.11-7.1,7.13H108.86c0,1.51,0,2.93,0,4.34a6.67,6.67,0,0,1-6.93,6.89q-33.42,0-66.85,0a6.66,6.66,0,0,1-7-7q0-38.1,0-76.2c0-3.68,2.06-5.79,5.34-6.95ZM95.7,86.12c-.07-1.8-.21-3.51-.21-5.23q0-36.63,0-73.27C95.48,4.86,94.64,4,91.9,4H35.75c-2.82,0-3.65.83-3.65,3.67V82.42c0,2.91.8,3.7,3.75,3.7H95.7Zm13.18-11.24c4.16,0,8.16,0,12.16,0a2.55,2.55,0,0,0,2.51-2.75c0-4.77.08-9.54,0-14.3a7.28,7.28,0,0,0-7.1-7,7.19,7.19,0,0,0-7.5,6.67C108.75,63.22,108.88,69,108.88,74.88Zm-9.38-24V82.5a9.77,9.77,0,0,0,0,1.21,2.66,2.66,0,0,0,5.3,0,9.74,9.74,0,0,0,0-1.21c0-7,0-14,0-21,0-3.72-.06-7.4,2.69-10.59Z"/><path class="cls-3" d="M68.48,104.84h8.8c1.59,0,2.49.7,2.52,1.94s-.88,2.06-2.53,2.06q-8.8,0-17.62,0c-1.58,0-2.48-.71-2.51-1.94s.88-2.06,2.53-2.06Z"/><path class="cls-4" d="M87.73,42.87a24.07,24.07,0,1,1-24-24.15A24.13,24.13,0,0,1,87.73,42.87Zm-24.09,20a20.06,20.06,0,1,0-20-20.07A20.08,20.08,0,0,0,63.64,62.85Z"/><path class="cls-5" d="M63.67,9.36c5.2,0,10.41,0,15.62,0,1.47,0,2.35.74,2.38,1.94s-.84,2-2.27,2.06c-2.45,0-4.89,0-7.34,0-7.93,0-15.85,0-23.77,0a2.72,2.72,0,0,1-1.85-.48,2.92,2.92,0,0,1-.65-2.1c.15-1,1.07-1.41,2.12-1.41H63.67Z"/><path class="cls-6" d="M78.77,76.76c2.94,0,5.88,0,8.82,0,1.57,0,2.49.73,2.53,1.94s-.92,2.07-2.54,2.07q-8.82,0-17.63,0c-1.58,0-2.5-.72-2.54-1.94s.92-2.06,2.54-2.07C72.89,76.75,75.83,76.76,78.77,76.76Z"/><path class="cls-7" d="M69.75,34.77a2,2,0,0,1-3,1.94,6.58,6.58,0,0,1-.83-.67A2.56,2.56,0,0,0,63,35.76a2.46,2.46,0,0,0-1.45,2.5,2.56,2.56,0,0,0,1.71,2.34,8.54,8.54,0,0,0,1,.29A6.62,6.62,0,0,1,66.5,52.64a1.89,1.89,0,0,0-.94,2,4.28,4.28,0,0,1,0,.8,2,2,0,0,1-1.87,2.06,1.93,1.93,0,0,1-2.07-2,1.67,1.67,0,0,0-1.52-2,4.15,4.15,0,0,1-1.52-.81,1.87,1.87,0,0,1-.55-2.6,1.91,1.91,0,0,1,2.55-.8c.33.12.62.34,1,.48A2.63,2.63,0,0,0,65,48.26a2.59,2.59,0,0,0-1.51-3.39c-.4-.17-.85-.25-1.27-.39A6.39,6.39,0,0,1,57.58,39a6.25,6.25,0,0,1,2.94-6.43,2,2,0,0,0,1.12-2c-.06-1.6.71-2.48,2-2.5s2,.82,2,2.44c0,.83.35,1.09,1,1.4A9.69,9.69,0,0,1,69,33.55,3.88,3.88,0,0,1,69.75,34.77Z"/></g></g></svg>