<svg xmlns="http://www.w3.org/2000/svg" xmlns:xlink="http://www.w3.org/1999/xlink" viewBox="0 0 130.86 144.7"><defs><style>.cls-1{fill:url(#Degradado_sin_nombre_6);}.cls-2{fill:url(#Degradado_sin_nombre_6-2);}.cls-3{fill:url(#Degradado_sin_nombre_6-3);}</style><linearGradient id="Degradado_sin_nombre_6" x1="0.84" y1="79.95" x2="130.86" y2="79.95" gradientUnits="userSpaceOnUse"><stop offset="0" stop-color="#1cb0e7"/><stop offset="1" stop-color="#0073a9"/></linearGradient><linearGradient id="Degradado_sin_nombre_6-2" x1="0" y1="34.25" x2="86.19" y2="34.25" xlink:href="#Degradado_sin_nombre_6"/><linearGradient id="Degradado_sin_nombre_6-3" x1="18.01" y1="126.84" x2="34.71" y2="126.84" xlink:href="#Degradado_sin_nombre_6"/></defs><title>Recurso 8</title><g id="Capa_2" data-name="Capa 2"><g id="Capa_1-2" data-name="Capa 1"><path class="cls-1" d="M113.39,74.91c1.39-.64,2.3-1.1,3.24-1.48,4.87-1.91,9.66-.44,12.37,3.75,2.82,4.36,2.51,9.34-1.45,12.79-8.31,7.22-16.71,14.36-25.57,20.89-5.38,4-12.07,4.52-18.32,6.11-11.29,2.87-22.61,5.61-33.94,8.32-1.61.38-2.29.71-2.16,2.69a12.69,12.69,0,0,1-9.18,13,112.73,112.73,0,0,1-15.09,3.51,12.88,12.88,0,0,1-14.53-8.92c-1.1-3.39-1.92-6.88-2.79-10.33-.36-1.43-.48-3,1.45-3.38,1.64-.33,2.29.81,2.65,2.24.8,3.19,1.61,6.38,2.55,9.53,1.45,4.89,5,7.35,10,6.5a121.26,121.26,0,0,0,14-3.15,9.22,9.22,0,0,0,5.89-12.24c-4.09-11.09-8.28-22.15-12.41-33.23-.45-1.18-.82-1.75-2.38-1.25-5.18,1.65-10.47,3-15.68,4.57-5.49,1.69-7.91,6-6.6,11.6.59,2.56,1.36,5.08,2,7.63a2.13,2.13,0,0,1-1.34,2.76,1.77,1.77,0,0,1-2.52-1.13C2.37,111.22.31,106.78,1,102c.86-6.12,4.7-9.83,10.59-11.5,5.15-1.46,10.26-3,15.45-4.36,3.16-.81,5.82-2.55,8.71-3.89,1.22-.56,1.21-1.47,1.21-2.54q0-7.9,0-15.82c0-7,3.18-9.93,10.09-10.29C56.92,53.09,60.5,57,59.83,66.31c-.06.85-.66,2.59.66,2.5s3.2-.55,3.17-2.82c-.07-5.84,0-11.68,0-17.51A23.63,23.63,0,0,1,64,43.71a8.82,8.82,0,0,1,6.57-7,17.18,17.18,0,0,1,8.66-.14c4.74,1.09,7.4,4.85,7.41,10.3,0,13.65,0,27.31.08,41,0,.79-1.1,2.55,1,2.49,1.63,0,2.86-.41,2.85-2.76-.12-20.06-.07-40.12-.06-60.17,0-9.95,9.21-15.23,18-10.31a8.72,8.72,0,0,1,4.72,7c.24,2.43.1,4.89.13,7.34,0,1.47-.74,2.42-2.17,2.37a2,2,0,0,1-2-2.3c0-1.88.05-3.77,0-5.65-.15-3.57-2.08-5.5-5.66-5.7a27.38,27.38,0,0,0-3.39,0c-3.39.24-5.41,2.22-5.42,5.63,0,20.15,0,40.3,0,60.45,0,1.62.46,1.77,1.76,1a145,145,0,0,0,12-8.43c1-.8.78-1.84.78-2.83q0-16.52,0-33c0-.75,0-1.51,0-2.26,0-1.31.59-2.21,2-2.25,1.54,0,2.16.91,2.16,2.35q0,6.65,0,13.28Zm13,7.76a6,6,0,0,0-9.4-4.76q-8.34,5.81-16.64,11.64a25.67,25.67,0,0,1-9.91,4.56c-7.28,1.42-14.64.69-22,.6a4.18,4.18,0,0,1-3.92-3.17,4.36,4.36,0,0,1,1.27-4.88c1.09-1,2.29-2,3.45-2.9A16.72,16.72,0,0,0,75,74.94c.54-2,.6-3.74-1-5.15s-3.62-1.15-5.5-.15Q51.82,78.51,35.13,87.32c-1.36.71-1.62,1.32-1.05,2.8Q39.78,105,45.24,119.9c.62,1.72,1.42,1.81,2.91,1.45,14.59-3.61,29.19-7.15,43.79-10.74a22.21,22.21,0,0,0,8.89-4.08q11.51-9.36,22.93-18.8A6.25,6.25,0,0,0,126.4,82.67ZM68.51,89.86l.32.66c3.93,0,7.87,0,11.8,0,1.38,0,1.73-.43,1.72-1.76,0-14.28,0-28.57-.06-42.86a5,5,0,0,0-4.4-5.32c-5.07-.82-8.45.32-9.58,3.26a3.24,3.24,0,0,0-.24,1.1c0,6.64,0,13.28,0,20,8.27-1.67,13.23,3.74,11,11.61a20,20,0,0,1-6.87,10.39C70.92,87.9,69.72,88.88,68.51,89.86ZM41.08,79.37c3.67-1.94,6.78-3.87,10.11-5.27s4.5-3.52,4.56-7.34c.17-10-2.87-9-9.53-8.89-3.41,0-5.07,1.65-5.12,5C41,68.2,41.08,73.53,41.08,79.37Z"/><path class="cls-2" d="M62.4,13.07c-4.28-.66-6.4-2.87-6.18-6.79S59.25,0,63.76,0C68.84,0,73.92,0,79,0c4.8,0,7.12,2.32,7.16,7.08,0,5.08,0,10.16,0,15.24,0,4.69-2.19,7.47-6,7.72-4,.27-6.23-1.87-7-6.77,0-.28-.06-.56-.1-.87-1,0-1.37.87-1.93,1.41-4.77,4.54-9.5,9.13-14.26,13.68-2.65,2.53-5.28,2.9-8.5,1.38-2.19-1-4.41-3.41-6.48-2.89s-3.57,3.14-5.29,4.87L12.15,65.51c-1.26,1.27-2.51,2.6-4.39,2.88a6.51,6.51,0,0,1-6.79-3A6.46,6.46,0,0,1,1.39,58a15.36,15.36,0,0,1,1.33-1.46Q18.83,40.27,34.93,24c3.57-3.59,5.59-3.9,10-1.63,5.77,3,5.83,3,10.33-1.5C57.8,18.38,60.08,15.64,62.4,13.07Zm9-8.83c-2.26,0-4.52,0-6.78,0-1.74,0-4-.39-4.08,2.23s2.17,2.35,4,2.38c1.13,0,2.26,0,3.39,0s2.3.11,2.79,1.42-.3,2-1.06,2.69c-5.49,5.29-11,10.55-16.47,15.89a3,3,0,0,1-4,.49c-2-1.1-4-2-6-3.17-2.13-1.29-3.6-.92-5.37.89C27.35,37.78,16.75,48.36,6.2,59a13,13,0,0,0-1.64,1.92,2,2,0,0,0,.51,2.77,1.93,1.93,0,0,0,2.59.2,18.85,18.85,0,0,0,1.86-1.72c8.43-8.48,16.79-17,25.3-25.45,7.79-7.69,4.43-7.15,14.29-2.17,2.31,1.17,3.82,1.05,5.67-.8,6-6,12.18-11.79,18.29-17.66.81-.78,1.6-1.68,2.93-1.12s1.34,1.69,1.35,2.84c0,1.79,0,3.58,0,5.37,0,1.49.69,2.69,2.27,2.7s2.29-1.16,2.3-2.66c0-5.47,0-10.93,0-16.39a2.26,2.26,0,0,0-2.61-2.57C76.71,4.26,74.08,4.25,71.44,4.24Z"/><path class="cls-3" d="M26.4,135.13a8.29,8.29,0,1,1,8.31-8.19A8.33,8.33,0,0,1,26.4,135.13Zm4-8.31a4.11,4.11,0,0,0-4.12-4.11,4.12,4.12,0,0,0,0,8.23A4.11,4.11,0,0,0,30.4,126.82Z"/></g></g></svg>