<svg xmlns="http://www.w3.org/2000/svg" xmlns:xlink="http://www.w3.org/1999/xlink" viewBox="0 0 143.31 140.3"><defs><style>.cls-1{fill:url(#Degradado_sin_nombre_6);}.cls-2{fill:url(#Degradado_sin_nombre_6-2);}.cls-3{fill:url(#Degradado_sin_nombre_6-3);}.cls-4{fill:url(#Degradado_sin_nombre_6-4);}</style><linearGradient id="Degradado_sin_nombre_6" y1="115.18" x2="143.31" y2="115.18" gradientUnits="userSpaceOnUse"><stop offset="0" stop-color="#1cb0e7"/><stop offset="1" stop-color="#0073a9"/></linearGradient><linearGradient id="Degradado_sin_nombre_6-2" x1="43.24" y1="42.19" x2="99.56" y2="42.19" xlink:href="#Degradado_sin_nombre_6"/><linearGradient id="Degradado_sin_nombre_6-3" x1="85.41" y1="62.1" x2="132.36" y2="62.1" xlink:href="#Degradado_sin_nombre_6"/><linearGradient id="Degradado_sin_nombre_6-4" x1="97.13" y1="57.45" x2="120.64" y2="57.45" xlink:href="#Degradado_sin_nombre_6"/></defs><title>Recurso 9</title><g id="Capa_2" data-name="Capa 2"><g id="Capa_1-2" data-name="Capa 1"><path class="cls-1" d="M26.52,137.42l-4.32,1.69-9.63-26.24-10.93,3.9L0,112.47c3-1.13,6-2.12,8.77-3.34.89-.39,1.47-1.48,2.26-2.17a9.89,9.89,0,0,1,2.66-2c7.85-2.94,15.75-5.73,23.6-8.66,2.4-.9,4.23-.91,4.86,1.6,5.2-2.16,10.21-4.51,15.41-6.32,7.25-2.53,14.63-1.41,22,0C86,92.77,92.38,94,98.83,95c4.78.74,9,2.13,10.6,7.52,7.22-2.61,14.12-5.21,21.1-7.6a9.41,9.41,0,0,1,12.64,7.28c.8,4.46-1.78,8.63-6.61,10.41-12.16,4.49-24.47,8.6-36.48,13.44a50.35,50.35,0,0,1-26.35,3.17,31.67,31.67,0,0,0-18.65,3.3c.77,5.06.48,5.32-8.81,7.83-.5-1.29-1-2.6-1.6-4.09l5.53-2.27c-4-10.93-7.92-21.77-12-32.92l-22,8ZM74.15,105l24.34,4.26c3.48.62,5.8-.59,6.4-3.36.64-3-1-5.11-4.62-5.77-8.73-1.58-17.48-3-26.18-4.66-10.33-2-19.45,1.1-28.06,6.41-.76.47-1.68,1.94-1.46,2.58,2.68,7.8,5.56,15.54,8.35,23.18a3.86,3.86,0,0,0,.85.09,7.07,7.07,0,0,0,1.1-.36,39.37,39.37,0,0,1,21.19-2.69c6.94.9,13.81.64,20.34-2.39,1.85-.86,3.83-1.43,5.75-2.13q16.2-5.9,32.39-11.8c3.43-1.25,4.82-3.78,3.67-6.46-1-2.44-3.67-3.44-6.67-2.37-6.88,2.45-13.75,4.92-20.57,7.52a5.48,5.48,0,0,0-2.38,2.25A9.5,9.5,0,0,1,98.43,114c-3.07-.53-6.14-1.05-9.21-1.6l-15.84-2.89Z"/><path class="cls-2" d="M55,23.43c0-2.81-.06-5.16,0-7.49a16.39,16.39,0,0,1,32.77,0c.07,2.34,0,4.68,0,7.46,2.71,0,5.31.1,7.89,0s4,.88,3.87,3.72c-.14,2.53,0,5.06,0,7.82H94.88V28.28h-7V35H83.19V28.13H59.72V35H55.09V28.31H48.21V70.22h32.4V75H48.42c-.84,3.87-.18,4.72,3.55,4.73H80.56V84.2c-.62.06-1.27.17-1.92.17-9.18,0-18.36,0-27.53,0-5,0-7.82-2.82-7.83-7.79,0-16.5,0-33,0-49.5,0-2.61.94-3.79,3.61-3.67S52.07,23.43,55,23.43Zm4.7-.21H83.09c0-2.54.08-4.88,0-7.21a11.69,11.69,0,0,0-23.37,0C59.62,18.33,59.7,20.67,59.7,23.22Z"/><path class="cls-3" d="M108.87,39.84c6.54,0,13.08.07,19.62,0,2.73,0,3.89.9,3.87,3.74-.09,11,0,22.07-.05,33.1,0,4.83-2.83,7.71-7.6,7.73q-15.81.06-31.63,0c-4.78,0-7.6-2.89-7.62-7.7,0-11,0-22.07,0-33.11,0-2.81,1.09-3.81,3.84-3.76C95.79,39.91,102.33,39.84,108.87,39.84Zm18.63,4.9H90.38V70.15H127.5ZM90.27,75.11c-.18,4.09.24,4.56,4,4.57h29.29c3.81,0,4.39-.71,3.75-4.57Z"/><path class="cls-4" d="M97.32,49.31h4.49c-.09,5.45-.25,11.2,7.26,11.55,4.53.21,6.16-2.65,7.06-11.49.71,0,1.45-.12,2.2-.15s1.31,0,2.07,0c.67,5.72.16,10.8-4.84,14.27a11,11,0,0,1-12.41.58C97.46,60.83,96.67,55.49,97.32,49.31Z"/></g></g></svg>