<svg xmlns="http://www.w3.org/2000/svg" xmlns:xlink="http://www.w3.org/1999/xlink" viewBox="0 0 100.57 135.4"><defs><style>.cls-1{fill:url(#Degradado_sin_nombre_6);}.cls-2{fill:url(#Degradado_sin_nombre_6-2);}.cls-3{fill:url(#Degradado_sin_nombre_6-3);}.cls-4{fill:url(#Degradado_sin_nombre_6-4);}.cls-5{fill:url(#Degradado_sin_nombre_6-5);}.cls-6{fill:url(#Degradado_sin_nombre_6-6);}.cls-7{fill:url(#Degradado_sin_nombre_6-7);}.cls-8{fill:url(#Degradado_sin_nombre_6-8);}.cls-9{fill:url(#Degradado_sin_nombre_6-9);}.cls-10{fill:url(#Degradado_sin_nombre_6-10);}.cls-11{fill:url(#Degradado_sin_nombre_6-11);}.cls-12{fill:url(#Degradado_sin_nombre_6-12);}.cls-13{fill:url(#Degradado_sin_nombre_6-13);}.cls-14{fill:url(#Degradado_sin_nombre_6-14);}.cls-15{fill:url(#Degradado_sin_nombre_6-15);}.cls-16{fill:url(#Degradado_sin_nombre_6-16);}.cls-17{fill:url(#Degradado_sin_nombre_6-17);}</style><linearGradient id="Degradado_sin_nombre_6" y1="67.7" x2="100.57" y2="67.7" gradientUnits="userSpaceOnUse"><stop offset="0" stop-color="#1cb0e7"/><stop offset="1" stop-color="#0073a9"/></linearGradient><linearGradient id="Degradado_sin_nombre_6-2" x1="9.8" y1="66.88" x2="90.75" y2="66.88" xlink:href="#Degradado_sin_nombre_6"/><linearGradient id="Degradado_sin_nombre_6-3" x1="22.88" y1="43.43" x2="47.37" y2="43.43" xlink:href="#Degradado_sin_nombre_6"/><linearGradient id="Degradado_sin_nombre_6-4" x1="22.87" y1="103.03" x2="47.37" y2="103.03" xlink:href="#Degradado_sin_nombre_6"/><linearGradient id="Degradado_sin_nombre_6-5" x1="22.87" y1="73.23" x2="47.37" y2="73.23" xlink:href="#Degradado_sin_nombre_6"/><linearGradient id="Degradado_sin_nombre_6-6" x1="53.85" y1="73.21" x2="78.66" y2="73.21" xlink:href="#Degradado_sin_nombre_6"/><linearGradient id="Degradado_sin_nombre_6-7" x1="53.85" y1="43.44" x2="78.66" y2="43.44" xlink:href="#Degradado_sin_nombre_6"/><linearGradient id="Degradado_sin_nombre_6-8" x1="53.85" y1="103.03" x2="78.66" y2="103.03" xlink:href="#Degradado_sin_nombre_6"/><linearGradient id="Degradado_sin_nombre_6-9" x1="53.85" y1="111.12" x2="67.2" y2="111.12" xlink:href="#Degradado_sin_nombre_6"/><linearGradient id="Degradado_sin_nombre_6-10" x1="53.85" y1="95.01" x2="67.2" y2="95.01" xlink:href="#Degradado_sin_nombre_6"/><linearGradient id="Degradado_sin_nombre_6-11" x1="53.85" y1="35.35" x2="67.2" y2="35.35" xlink:href="#Degradado_sin_nombre_6"/><linearGradient id="Degradado_sin_nombre_6-12" x1="53.84" y1="51.46" x2="67.21" y2="51.46" xlink:href="#Degradado_sin_nombre_6"/><linearGradient id="Degradado_sin_nombre_6-13" x1="53.85" y1="81.3" x2="67.21" y2="81.3" xlink:href="#Degradado_sin_nombre_6"/><linearGradient id="Degradado_sin_nombre_6-14" x1="53.85" y1="65.19" x2="67.2" y2="65.19" xlink:href="#Degradado_sin_nombre_6"/><linearGradient id="Degradado_sin_nombre_6-15" x1="29.9" y1="43.43" x2="40.34" y2="43.43" xlink:href="#Degradado_sin_nombre_6"/><linearGradient id="Degradado_sin_nombre_6-16" x1="29.9" y1="103.05" x2="40.33" y2="103.05" xlink:href="#Degradado_sin_nombre_6"/><linearGradient id="Degradado_sin_nombre_6-17" x1="29.91" y1="73.24" x2="40.34" y2="73.24" xlink:href="#Degradado_sin_nombre_6"/></defs><title>Recurso 10</title><g id="Capa_2" data-name="Capa 2"><g id="Capa_1-2" data-name="Capa 1"><path class="cls-1" d="M4.78,135.4c-.29-.45-.84-.41-1.25-.63A6.31,6.31,0,0,1,0,128.87v-73A7.86,7.86,0,0,1,0,54.7,1.88,1.88,0,0,1,2,53a1.88,1.88,0,0,1,1.93,1.66,7.87,7.87,0,0,1,0,1.46V128c0,2.82.61,3.45,3.37,3.45h86c2.59,0,3.25-.68,3.25-3.3V7.29c0-2.68-.64-3.32-3.36-3.32H7.25C4.64,4,4,4.64,4,7.25V46a5.8,5.8,0,0,1,0,1.32,1.86,1.86,0,0,1-2.07,1.62A1.86,1.86,0,0,1,0,47.18a7.5,7.5,0,0,1,0-1.06V7C0,2.54,2.54,0,7,0h86.6c4.44,0,7,2.53,7,7q0,60.28,0,120.58c0,3.91-1.3,6.58-5.08,7.86Z"/><path class="cls-2" d="M9.8,70.22V17.73c0-2.41.52-2.94,2.93-2.94,4.93,0,9.87,0,14.8,0,.83,0,1.19-.16,1.12-1.07s0-2,0-3c0-1.88.67-2.54,2.55-2.55H69.26c2,0,2.62.65,2.64,2.59,0,1,.06,2,0,3-.06.82.2,1,1,1,5,0,10,0,14.94,0,2.34,0,2.89.55,2.89,2.86V77.14c0,.31,0,.62,0,.93a2,2,0,1,1-4,0c0-.4,0-.8,0-1.19q0-28.36,0-56.72c0-1.19-.3-1.43-1.44-1.41-4,.07-8.11.08-12.16,0-1.16,0-1.42.34-1.32,1.4a23.37,23.37,0,0,1,0,2.9c0,1.63-.75,2.36-2.35,2.36q-19.3,0-38.61,0a2,2,0,0,1-2.3-2.26c0-1.18,0-2.38,0-3.57,0-.64-.18-.81-.81-.81-4.41,0-8.82,0-13.23,0-.73,0-.93.25-.84.9a4.69,4.69,0,0,1,0,.53q0,50,0,100.09c0,1.15.26,1.42,1.42,1.42q35.1-.06,70.21,0c1.12,0,1.45-.2,1.44-1.4,0-11.11,0-22.21,0-33.32a5.88,5.88,0,0,1,0-1.19,2,2,0,0,1,3.92.07,7.5,7.5,0,0,1,0,1.06v35.83c0,2.32-.56,2.89-2.87,2.89H12.64c-2.29,0-2.84-.57-2.84-2.91Zm40.47-48.8c5.55,0,11.1,0,16.64,0,.79,0,1.07-.16,1-1-.07-2.42,0-4.84,0-7.26,0-.76-.12-1.07-1-1.07q-16.69,0-33.41,0c-.73,0-1,.19-1,1,.05,2.38.08,4.76,0,7.13,0,1.11.36,1.27,1.33,1.26C39.36,21.4,44.82,21.42,50.27,21.42Z"/><path class="cls-3" d="M47.36,43.49c0,2.16,0,4.32,0,6.47A5.46,5.46,0,0,1,42,55.59q-6.93.18-13.87,0A5.22,5.22,0,0,1,23,50.43c-.12-4.67-.13-9.35,0-14a5.39,5.39,0,0,1,5.58-5.21q6.56-.06,13.09,0A5.6,5.6,0,0,1,47.35,37C47.37,39.17,47.36,41.33,47.36,43.49ZM35.11,35.17c-2,0-4.05,0-6.07,0-1.61,0-2.15.53-2.16,2.13q0,6.14,0,12.28c0,1.55.53,2.08,2.07,2.09q6.19,0,12.41,0c1.49,0,2-.6,2-2.13,0-4.1,0-8.19,0-12.28,0-1.5-.58-2.08-2.06-2.09C39.25,35.15,37.18,35.17,35.11,35.17Z"/><path class="cls-4" d="M47.36,103.08c0,2.16,0,4.32,0,6.48a5.61,5.61,0,0,1-5.68,5.71q-6.54.08-13.09,0a5.49,5.49,0,0,1-5.64-5.46q-.15-6.74,0-13.48a5.44,5.44,0,0,1,5.58-5.51q6.61-.13,13.22,0a5.59,5.59,0,0,1,5.62,5.92C47.37,98.85,47.36,101,47.36,103.08Zm-4-.07c0-2.07,0-4.14,0-6.2,0-1.41-.59-2-2-2q-6.27,0-12.55,0c-1.36,0-1.93.59-1.93,2q0,6.27,0,12.54c0,1.44.6,2,2,2,4.14,0,8.28,0,12.41,0,1.49,0,2.07-.6,2.08-2.09C43.4,107.15,43.39,105.08,43.39,103Z"/><path class="cls-5" d="M35.19,61c2.07,0,4.14,0,6.21,0a5.6,5.6,0,0,1,6,6q0,6.28,0,12.56a5.59,5.59,0,0,1-5.87,5.9q-6.34,0-12.69,0a5.54,5.54,0,0,1-5.87-5.76c-.06-4.32-.07-8.64,0-13A5.51,5.51,0,0,1,28.71,61C30.87,61,33,61,35.19,61Zm-.12,20.45c2.06,0,4.13,0,6.2,0,1.53,0,2.11-.55,2.11-2q0-6.21,0-12.41c0-1.44-.55-2-2-2q-6.28,0-12.55,0c-1.39,0-2,.53-2,1.89q0,6.35,0,12.68c0,1.36.6,1.89,2,1.9C30.93,81.48,33,81.47,35.07,81.47Z"/><path class="cls-6" d="M66.13,75.2H56.35c-1.6,0-2.46-.67-2.5-1.9s.87-2.07,2.5-2.07q9.9,0,19.82,0a4.51,4.51,0,0,1,.52,0,2,2,0,0,1,2,2.05,1.88,1.88,0,0,1-2.09,1.89C73.09,75.21,69.61,75.19,66.13,75.2Z"/><path class="cls-7" d="M66.25,41.45c3.31,0,6.61,0,9.91,0,1.67,0,2.54.72,2.5,2s-.91,1.94-2.48,1.94H56.36c-1.62,0-2.54-.78-2.51-2.06s.9-1.9,2.49-1.9C59.64,41.44,63,41.45,66.25,41.45Z"/><path class="cls-8" d="M66.13,105H56.22c-1.49,0-2.33-.69-2.37-1.9s.86-2.06,2.36-2.06q10,0,20.09,0c1.51,0,2.4.8,2.36,2s-.87,1.9-2.35,1.91Z"/><path class="cls-9" d="M60.53,113.1c-1.45,0-2.9,0-4.35,0s-2.31-.78-2.33-2,.84-2,2.4-2h8.57c1.57,0,2.41.73,2.38,2s-.84,1.93-2.32,2S62,113.1,60.53,113.1Z"/><path class="cls-10" d="M60.5,97c-1.45,0-2.9,0-4.35,0s-2.3-.81-2.3-2,.83-1.95,2.29-2c3,0,5.89,0,8.84,0,1.38,0,2.19.74,2.22,1.89S66.41,97,65,97,62,97,60.5,97Z"/><path class="cls-11" d="M60.41,37.33c-1.49,0-3,0-4.48,0a2,2,0,1,1-.1-3.94q4.68-.07,9.37,0a2,2,0,1,1,0,3.93C63.58,37.36,62,37.33,60.41,37.33Z"/><path class="cls-12" d="M60.49,53.44c-1.5,0-3,0-4.49,0a2,2,0,0,1-2.16-2,2,2,0,0,1,2.18-2q4.48,0,9,0a2,2,0,0,1,2.21,2.07c0,1.14-.87,1.87-2.23,1.89S62,53.44,60.49,53.44Z"/><path class="cls-13" d="M60.55,79.32c1.49,0,3,0,4.48,0a2,2,0,1,1,0,4c-3,0-6.07,0-9.11,0a2,2,0,1,1,.1-4C57.55,79.3,59.05,79.32,60.55,79.32Z"/><path class="cls-14" d="M60.51,67.17c-1.5,0-3,0-4.49,0a2,2,0,1,1,0-3.95q4.56,0,9.1,0a2,2,0,1,1,0,3.95C63.58,67.2,62,67.17,60.51,67.17Z"/><path class="cls-15" d="M34,47.77a2.3,2.3,0,0,1-1.42-.64c-.65-.65-1.34-1.28-2-2a1.93,1.93,0,0,1-.12-2.83,1.89,1.89,0,0,1,2.81,0c.56.51.86.5,1.33-.07.67-.82,1.41-1.58,2.14-2.34a2,2,0,0,1,2.93-.32,2,2,0,0,1,0,2.94C38.36,44,37,45.5,35.58,47A2.36,2.36,0,0,1,34,47.77Z"/><path class="cls-16" d="M40.33,100.65a2.3,2.3,0,0,1-.71,1.62c-1.33,1.41-2.62,2.85-4,4.25-1.13,1.18-2.11,1.18-3.3,0-.63-.61-1.27-1.22-1.86-1.87a1.92,1.92,0,0,1,0-2.74,1.82,1.82,0,0,1,2.71-.1c.77.76,1.11.4,1.62-.2.72-.83,1.48-1.64,2.27-2.4a1.77,1.77,0,0,1,2.08-.36A1.94,1.94,0,0,1,40.33,100.65Z"/><path class="cls-17" d="M34,72.67c1-1,1.86-2,2.81-3a2,2,0,1,1,2.87,2.72c-1.33,1.47-2.67,2.93-4,4.35a2,2,0,0,1-3.21.05c-.58-.54-1.14-1.11-1.69-1.68-1-1.06-1.07-2.18-.21-3s1.86-.76,3,.14Z"/></g></g></svg>