<svg xmlns="http://www.w3.org/2000/svg" xmlns:xlink="http://www.w3.org/1999/xlink" viewBox="0 0 135.16 137.42"><defs><style>.cls-1{fill:url(#Degradado_sin_nombre_6);}.cls-2{fill:url(#Degradado_sin_nombre_6-2);}.cls-3{fill:url(#Degradado_sin_nombre_6-3);}.cls-4{fill:url(#Degradado_sin_nombre_6-4);}.cls-5{fill:url(#Degradado_sin_nombre_6-5);}.cls-6{fill:url(#Degradado_sin_nombre_6-6);}.cls-7{fill:url(#Degradado_sin_nombre_6-7);}.cls-8{fill:url(#Degradado_sin_nombre_6-8);}.cls-9{fill:url(#Degradado_sin_nombre_6-9);}.cls-10{fill:url(#Degradado_sin_nombre_6-10);}.cls-11{fill:url(#Degradado_sin_nombre_6-11);}.cls-12{fill:url(#Degradado_sin_nombre_6-12);}.cls-13{fill:url(#Degradado_sin_nombre_6-13);}.cls-14{fill:url(#Degradado_sin_nombre_6-14);}.cls-15{fill:url(#Degradado_sin_nombre_6-15);}.cls-16{fill:url(#Degradado_sin_nombre_6-16);}</style><linearGradient id="Degradado_sin_nombre_6" y1="68.71" x2="135.16" y2="68.71" gradientUnits="userSpaceOnUse"><stop offset="0" stop-color="#1cb0e7"/><stop offset="1" stop-color="#0073a9"/></linearGradient><linearGradient id="Degradado_sin_nombre_6-2" x1="34.41" y1="75.58" x2="52.64" y2="75.58" xlink:href="#Degradado_sin_nombre_6"/><linearGradient id="Degradado_sin_nombre_6-3" x1="11.47" y1="27.49" x2="52.64" y2="27.49" xlink:href="#Degradado_sin_nombre_6"/><linearGradient id="Degradado_sin_nombre_6-4" x1="25.24" y1="38.94" x2="52.64" y2="38.94" xlink:href="#Degradado_sin_nombre_6"/><linearGradient id="Degradado_sin_nombre_6-5" x1="25.24" y1="50.39" x2="52.64" y2="50.39" xlink:href="#Degradado_sin_nombre_6"/><linearGradient id="Degradado_sin_nombre_6-6" x1="11.5" y1="38.93" x2="20.57" y2="38.93" xlink:href="#Degradado_sin_nombre_6"/><linearGradient id="Degradado_sin_nombre_6-7" x1="11.5" y1="50.38" x2="20.57" y2="50.38" xlink:href="#Degradado_sin_nombre_6"/><linearGradient id="Degradado_sin_nombre_6-8" x1="73.3" y1="83.6" x2="89.35" y2="83.6" xlink:href="#Degradado_sin_nombre_6"/><linearGradient id="Degradado_sin_nombre_6-9" x1="91.62" y1="83.6" x2="107.68" y2="83.6" xlink:href="#Degradado_sin_nombre_6"/><linearGradient id="Degradado_sin_nombre_6-10" x1="109.95" y1="83.6" x2="126.01" y2="83.6" xlink:href="#Degradado_sin_nombre_6"/><linearGradient id="Degradado_sin_nombre_6-11" x1="73.3" y1="101.93" x2="89.35" y2="101.93" xlink:href="#Degradado_sin_nombre_6"/><linearGradient id="Degradado_sin_nombre_6-12" x1="91.62" y1="101.93" x2="107.68" y2="101.93" xlink:href="#Degradado_sin_nombre_6"/><linearGradient id="Degradado_sin_nombre_6-13" x1="109.95" y1="101.92" x2="126" y2="101.92" xlink:href="#Degradado_sin_nombre_6"/><linearGradient id="Degradado_sin_nombre_6-14" x1="73.3" y1="120.25" x2="89.35" y2="120.25" xlink:href="#Degradado_sin_nombre_6"/><linearGradient id="Degradado_sin_nombre_6-15" x1="91.62" y1="120.24" x2="107.68" y2="120.24" xlink:href="#Degradado_sin_nombre_6"/><linearGradient id="Degradado_sin_nombre_6-16" x1="109.95" y1="120.24" x2="126" y2="120.24" xlink:href="#Degradado_sin_nombre_6"/></defs><title>Recurso 11</title><g id="Capa_2" data-name="Capa 2"><g id="Capa_1-2" data-name="Capa 1"><path class="cls-1" d="M29.78,6.88c0-.77,0-1.39,0-2a4.59,4.59,0,0,1,5-4.87h19.9a4.61,4.61,0,0,1,4.92,4.93c0,.57,0,1.14,0,1.94H81.87c4.66,0,7.47,2.82,7.47,7.5q0,17,0,34.06v2h40.48c3.58,0,5.34,1.77,5.34,5.38v76.28c0,3.62-1.75,5.37-5.34,5.37H69.4c-3.47,0-5.25-1.8-5.26-5.31V107.65H7.82C2.68,107.65,0,105,0,99.77v-85C0,9.58,2.68,6.88,7.81,6.88Zm-.09,4.58H7.87c-2.63,0-3.29.66-3.29,3.29v85c0,2.63.67,3.3,3.29,3.3H64.14v-1.9q0-22.83,0-45.65c0-3.32,1.81-5.12,5.14-5.13H84.64c.07-.29.1-.38.11-.47q0-18,0-35.92a2.3,2.3,0,0,0-2.61-2.53c-3.43,0-6.87,0-10.3,0H59.71C58.79,15,57.46,16,53.81,16H35.2C31.93,16,30.38,14.78,29.69,11.46ZM68.83,71.07v61.66H130.5V71.07Zm61.71-16H68.83V66.31h61.71ZM34.45,4.61v6.75H54.86V4.61Z"/><path class="cls-2" d="M45.82,61.84c1.49,0,2.86,0,4.23,0a2.3,2.3,0,1,1,0,4.57c-2.43,0-4.86,0-7.3,0A3.51,3.51,0,0,0,39,69.85c0,2,1.56,3.38,3.78,3.45a20.9,20.9,0,0,1,3.55.23,7.93,7.93,0,0,1,.74,15.33c-1.08.32-1.35.8-1.25,1.77a4.64,4.64,0,0,1,0,1.29,2.18,2.18,0,0,1-2.27,2,2.12,2.12,0,0,1-2.23-2,19.44,19.44,0,0,1,0-2.55H37.45c-1.93,0-3-.82-3-2.26s1.07-2.32,3-2.32c2.29,0,4.58,0,6.87,0s3.89-1.46,3.85-3.5-1.58-3.31-3.84-3.37a20,20,0,0,1-3.56-.24A7.93,7.93,0,0,1,40,62.3c1.11-.32,1.34-.83,1.23-1.78a.76.76,0,0,1,0-.15c0-2,.83-3.12,2.33-3.1s2.24,1.08,2.26,3Z"/><path class="cls-3" d="M31.93,29.78c-5.92,0-11.83,0-17.75,0-2.06,0-3.36-1.71-2.37-3.24A3,3,0,0,1,14,25.26c12.07-.08,24.14-.07,36.2-.05a2.3,2.3,0,0,1,2.47,2.24,2.33,2.33,0,0,1-2.54,2.32C44,29.79,38,29.78,31.93,29.78Z"/><path class="cls-4" d="M38.94,41.23c-3.62,0-7.25,0-10.87,0-1.77,0-2.85-.92-2.83-2.33s1.08-2.24,2.76-2.25H49.89c1.68,0,2.73.89,2.75,2.25s-1,2.32-2.82,2.33C46.19,41.24,42.57,41.23,38.94,41.23Z"/><path class="cls-5" d="M38.89,52.68H28.16c-1.81,0-2.88-.83-2.92-2.23s1.07-2.34,3-2.35h21.6c1.78,0,2.86.9,2.85,2.3s-1.08,2.27-2.87,2.28Z"/><path class="cls-6" d="M16,41.22c-.76,0-1.53.05-2.29,0a2.3,2.3,0,0,1-2.23-2.32,2.25,2.25,0,0,1,2.19-2.21c1.57-.07,3.15-.07,4.72,0a2.25,2.25,0,0,1,2.16,2.24,2.29,2.29,0,0,1-2.12,2.28c-.8.07-1.62,0-2.43,0Z"/><path class="cls-7" d="M16.12,52.67c-.81,0-1.62,0-2.43,0a2.27,2.27,0,0,1,0-4.54c1.52-.06,3.05-.06,4.58,0a2.28,2.28,0,0,1,2.26,2.29,2.31,2.31,0,0,1-2.3,2.26c-.72,0-1.43,0-2.15,0Z"/><path class="cls-8" d="M81.47,75.59c1.76,0,3.53,0,5.29,0a2.3,2.3,0,0,1,2.57,2.57c0,3.63,0,7.25,0,10.88a2.3,2.3,0,0,1-2.57,2.57c-3.63,0-7.25,0-10.88,0A2.3,2.3,0,0,1,73.31,89c0-3.63,0-7.25,0-10.88a2.3,2.3,0,0,1,2.56-2.57C77.74,75.56,79.61,75.59,81.47,75.59Zm3.22,4.66H78v6.68h6.71Z"/><path class="cls-9" d="M91.63,83.62c0-1.82,0-3.63,0-5.44a2.31,2.31,0,0,1,2.55-2.59q5.44,0,10.88,0a2.3,2.3,0,0,1,2.59,2.55q0,5.44,0,10.88a2.3,2.3,0,0,1-2.55,2.59c-3.63,0-7.26,0-10.88,0a2.31,2.31,0,0,1-2.59-2.56C91.61,87.24,91.63,85.43,91.63,83.62Zm4.69-3.4V87H103V80.22Z"/><path class="cls-10" d="M110,83.46c0-1.76,0-3.53,0-5.29a2.3,2.3,0,0,1,2.56-2.58c3.63,0,7.25,0,10.88,0A2.31,2.31,0,0,1,126,78.16c0,3.62,0,7.25,0,10.87a2.31,2.31,0,0,1-2.57,2.58c-3.63,0-7.25,0-10.88,0A2.3,2.3,0,0,1,110,89C109.94,87.18,110,85.32,110,83.46Zm4.7-3.24V87h6.66V80.22Z"/><path class="cls-11" d="M81.33,93.91c1.82,0,3.63,0,5.44,0a2.3,2.3,0,0,1,2.56,2.58c0,3.62,0,7.25,0,10.87a2.29,2.29,0,0,1-2.58,2.56c-3.63,0-7.25,0-10.88,0a2.3,2.3,0,0,1-2.56-2.58c0-3.63,0-7.25,0-10.88a2.3,2.3,0,0,1,2.58-2.56C77.71,93.89,79.52,93.91,81.33,93.91ZM78,98.56v6.69h6.71V98.56Z"/><path class="cls-12" d="M99.79,93.91c1.77,0,3.53,0,5.3,0a2.3,2.3,0,0,1,2.57,2.56q0,5.44,0,10.88a2.3,2.3,0,0,1-2.57,2.57q-5.45,0-10.88,0a2.3,2.3,0,0,1-2.57-2.57c0-3.63,0-7.25,0-10.88a2.29,2.29,0,0,1,2.57-2.56C96.07,93.89,97.93,93.91,99.79,93.91ZM103,98.59H96.33v6.7H103Z"/><path class="cls-13" d="M126,101.92c0,1.82,0,3.63,0,5.44a2.31,2.31,0,0,1-2.58,2.57q-5.43,0-10.88,0a2.29,2.29,0,0,1-2.56-2.57c0-3.63,0-7.25,0-10.88a2.29,2.29,0,0,1,2.57-2.56q5.43,0,10.88,0A2.3,2.3,0,0,1,126,96.49C126,98.3,126,100.11,126,101.92Zm-11.38,3.34h6.69v-6.7h-6.69Z"/><path class="cls-14" d="M89.34,120.39c0,1.76,0,3.53,0,5.29a2.31,2.31,0,0,1-2.57,2.57c-3.63,0-7.25,0-10.88,0a2.3,2.3,0,0,1-2.57-2.57q0-5.43,0-10.88a2.28,2.28,0,0,1,2.56-2.56q5.45,0,10.88,0a2.29,2.29,0,0,1,2.57,2.57C89.36,116.67,89.34,118.53,89.34,120.39Zm-4.7,3.26v-6.74H78v6.74Z"/><path class="cls-15" d="M99.64,128.26c-1.81,0-3.63,0-5.44,0a2.3,2.3,0,0,1-2.56-2.58c0-3.62,0-7.25,0-10.87a2.29,2.29,0,0,1,2.58-2.56q5.43,0,10.88,0a2.29,2.29,0,0,1,2.56,2.57q0,5.44,0,10.88a2.3,2.3,0,0,1-2.58,2.56C103.27,128.28,101.45,128.26,99.64,128.26Zm-3.37-4.68H103v-6.69h-6.7Z"/><path class="cls-16" d="M117.86,128.26c-1.71,0-3.43,0-5.15,0-1.89,0-2.73-.83-2.74-2.69q0-5.29,0-10.59c0-1.89.83-2.73,2.69-2.74q5.3,0,10.59,0c1.89,0,2.74.83,2.75,2.69q0,5.3,0,10.59c0,1.93-.85,2.73-2.83,2.75C121.4,128.27,119.63,128.26,117.86,128.26Zm-3.22-11.39v6.7h6.7v-6.7Z"/></g></g></svg>