<svg xmlns="http://www.w3.org/2000/svg" xmlns:xlink="http://www.w3.org/1999/xlink" viewBox="0 0 141.86 139.7"><defs><style>.cls-1{fill:url(#Degradado_sin_nombre_6);}.cls-2{fill:url(#Degradado_sin_nombre_6-2);}.cls-3{fill:url(#Degradado_sin_nombre_6-3);}</style><linearGradient id="Degradado_sin_nombre_6" y1="100.82" x2="141.86" y2="100.82" gradientUnits="userSpaceOnUse"><stop offset="0" stop-color="#1cb0e7"/><stop offset="1" stop-color="#0073a9"/></linearGradient><linearGradient id="Degradado_sin_nombre_6-2" x1="12.12" y1="29.45" x2="123.06" y2="29.45" xlink:href="#Degradado_sin_nombre_6"/><linearGradient id="Degradado_sin_nombre_6-3" x1="63.51" y1="95.01" x2="69.08" y2="95.01" xlink:href="#Degradado_sin_nombre_6"/></defs><title>Recurso 12</title><g id="Capa_2" data-name="Capa 2"><g id="Capa_1-2" data-name="Capa 1"><path class="cls-1" d="M0,105c.72-.82,1.42-1.67,2.18-2.46q8.63-9,17.29-18c1.84-1.91,3.21-2,5.05-.1,1.07,1.08,2,2.3,3.12,3.62L28.9,86.5C34,80.08,40.15,75.36,48.3,73.58a29.46,29.46,0,0,1,14.24.49,51.07,51.07,0,0,0,13.69,1.7c6.6,0,13.21.06,19.81,0,4.18-.06,7.59,1.27,10,5,.41-.37.77-.69,1.12-1,4.86-4.8,9.69-9.63,14.58-14.4a12.12,12.12,0,0,1,17.63.83c3.32,3.84,3.32,8.81-.15,13-4,4.87-8.17,9.66-12.27,14.48-3.25,3.83-6.61,7.59-9.75,11.52a19.86,19.86,0,0,1-15.42,7.5c-6.87.28-13.76.13-20.64.18-6.6,0-13.2.06-19.8.18-2.1,0-4.19.39-6.56.63.45.49.73.82,1,1.13,1.78,1.78,1.81,3.2.07,5L42.37,133.68c-1.58,1.62-3.14,3.25-4.74,4.85s-2.94,1.57-4.48.11q-16-15.22-32-30.47A11.12,11.12,0,0,1,0,106.64ZM32.06,91.59a3.58,3.58,0,0,0,.33.46c5.5,5.34,11,10.69,16.53,16a2.53,2.53,0,0,0,1.85.48,159.82,159.82,0,0,1,24.45-1.26q12.6.1,25.2,0A16.09,16.09,0,0,0,113.53,101c4.8-6,9.94-11.79,14.93-17.66,2.18-2.57,4.4-5.1,6.52-7.72s1.59-5.13-1.19-6.93a6.37,6.37,0,0,0-8.13.68q-8.73,8.6-17.41,17.26a2.5,2.5,0,0,0-.68,1.28c-1,6.71-4.75,9.95-11.54,10H79.55c-.7,0-1.39,0-2.08,0a2.75,2.75,0,0,1-.45-5.4,5.9,5.9,0,0,1,1.51-.13q9.15,0,18.28,0a4.61,4.61,0,0,0,4.34-2.2,6.25,6.25,0,0,0,.1-6.35c-1-1.92-2.76-2.37-4.8-2.36-6.78,0-13.57,0-20.35,0a54.88,54.88,0,0,1-14.65-1.82,24.75,24.75,0,0,0-10.82-.73C42.49,80.18,36.77,85.08,32.06,91.59Zm-10-1.73-15.36,16L35.28,133l15.18-15.59C41,108.18,31.63,99.09,22.11,89.86Z"/><path class="cls-2" d="M20,26.27a16.1,16.1,0,1,1,25.1-.11l5,4.24,4.92-4.22a16.14,16.14,0,0,1,23-22.45c5.5,4.62,8.55,13.9,2.31,22.45l4.93,4.23,5-4.27a16,16,0,0,1-3-13.81,15.47,15.47,0,0,1,6-9.07,16.07,16.07,0,0,1,20.4.82c5.13,4.56,8.08,13.68,1.81,22.24.41.28.83.54,1.23.82A14.23,14.23,0,0,1,123,39c.1,4.34,0,8.68,0,13a6.53,6.53,0,0,1-6.31,6.75c-3.5.18-7,.08-10.52.09-5.26,0-10.53.08-15.79,0a28,28,0,0,1-4.8-1,2.6,2.6,0,0,0-1,0,22.32,22.32,0,0,1-4.25.93q-12.81.14-25.62,0a22.62,22.62,0,0,1-4.13-.9,2.6,2.6,0,0,0-1.11,0,22.62,22.62,0,0,1-4.12.93c-8.63.08-17.26.07-25.9,0-4.68,0-7.33-2.76-7.34-7.46,0-3.73,0-7.47,0-11.21a14.65,14.65,0,0,1,7.46-13.6C19.69,26.52,19.78,26.42,20,26.27Zm82.68,27c4.38,0,8.77,0,13.15,0,1.15,0,1.69-.43,1.68-1.63,0-4.19,0-8.39,0-12.59a8.83,8.83,0,0,0-6.54-8.32,2.82,2.82,0,0,0-1.7.1,16.3,16.3,0,0,1-13,0,2.82,2.82,0,0,0-1.7-.09,9,9,0,0,0-6.54,8.9c0,3.92,0,7.85,0,11.77,0,1.59.28,1.86,1.86,1.86Zm-70.18,0c4.34,0,8.67,0,13,0,1.12,0,1.76-.34,1.75-1.56,0-4.34.07-8.68-.09-13a8.61,8.61,0,0,0-6.4-8,3,3,0,0,0-1.83.11,16.32,16.32,0,0,1-12.91,0,3.06,3.06,0,0,0-1.82-.1,8.83,8.83,0,0,0-6.45,8.39c0,4.06,0,8.12,0,12.18,0,1.78.17,1.94,2,1.94Zm35,0c4.38,0,8.76,0,13.15,0,1.12,0,1.72-.35,1.71-1.58,0-4.24,0-8.49,0-12.73A8.76,8.76,0,0,0,76,30.76a3.13,3.13,0,0,0-2,.09,16.32,16.32,0,0,1-12.91,0,3,3,0,0,0-1.83-.08,8.69,8.69,0,0,0-6.38,8.13c-.12,4.24,0,8.48-.07,12.73,0,1.28.59,1.67,1.79,1.66C58.89,53.22,63.18,53.24,67.47,53.24Zm0-26.66A10.52,10.52,0,1,0,57.07,16,10.55,10.55,0,0,0,67.49,26.58ZM43,16.1A10.51,10.51,0,1,0,32.46,26.58,10.54,10.54,0,0,0,43,16.1Zm59.66,10.48A10.52,10.52,0,1,0,92.21,16,10.55,10.55,0,0,0,102.61,26.58Z"/><path class="cls-3" d="M66.3,97.82A2.83,2.83,0,0,1,63.51,95a2.79,2.79,0,1,1,5.57,0A2.72,2.72,0,0,1,66.3,97.82Z"/></g></g></svg>